  0
SECTION
  2
HEADER
  9
$ACADVER
  1
AC1032
  9
$ACADMAINTVER
 90
      327
  9
$DWGCODEPAGE
  3
ANSI_1252
  9
$REQUIREDVERSIONS
160
                 0
  9
$INSBASE
 10
0.0
 20
0.0
 30
0.0
  9
$EXTMIN
 10
1.000000000000000E+20
 20
1.000000000000000E+20
 30
1.000000000000000E+20
  9
$EXTMAX
 10
-1.000000000000000E+20
 20
-1.000000000000000E+20
 30
-1.000000000000000E+20
  9
$LIMMIN
 10
0.0
 20
0.0
  9
$LIMMAX
 10
12.0
 20
9.0
  9
$ORTHOMODE
 70
     0
  9
$REGENMODE
 70
     1
  9
$FILLMODE
 70
     1
  9
$QTEXTMODE
 70
     0
  9
$MIRRTEXT
 70
     0
  9
$LTSCALE
 40
1.0
  9
$ATTMODE
 70
     1
  9
$TEXTSIZE
 40
0.2
  9
$TRACEWID
 40
0.05
  9
$TEXTSTYLE
  7
Standard
  9
$CLAYER
  8
0
  9
$CELTYPE
  6
ByLayer
  9
$CECOLOR
 62
   256
  9
$CELTSCALE
 40
1.0
  9
$DISPSILH
 70
     0
  9
$DIMSCALE
 40
1.0
  9
$DIMASZ
 40
0.18
  9
$DIMEXO
 40
0.0625
  9
$DIMDLI
 40
0.38
  9
$DIMRND
 40
0.0
  9
$DIMDLE
 40
0.0
  9
$DIMEXE
 40
0.18
  9
$DIMTP
 40
0.0
  9
$DIMTM
 40
0.0
  9
$DIMTXT
 40
0.18
  9
$DIMCEN
 40
0.09
  9
$DIMTSZ
 40
0.0
  9
$DIMTOL
 70
     0
  9
$DIMLIM
 70
     0
  9
$DIMTIH
 70
     1
  9
$DIMTOH
 70
     1
  9
$DIMSE1
 70
     0
  9
$DIMSE2
 70
     0
  9
$DIMTAD
 70
     0
  9
$DIMZIN
 70
     0
  9
$DIMBLK
  1

  9
$DIMASO
 70
     1
  9
$DIMSHO
 70
     1
  9
$DIMPOST
  1

  9
$DIMAPOST
  1

  9
$DIMALT
 70
     0
  9
$DIMALTD
 70
     2
  9
$DIMALTF
 40
25.4
  9
$DIMLFAC
 40
1.0
  9
$DIMTOFL
 70
     0
  9
$DIMTVP
 40
0.0
  9
$DIMTIX
 70
     0
  9
$DIMSOXD
 70
     0
  9
$DIMSAH
 70
     0
  9
$DIMBLK1
  1

  9
$DIMBLK2
  1

  9
$DIMSTYLE
  2
Standard
  9
$DIMCLRD
 70
     0
  9
$DIMCLRE
 70
     0
  9
$DIMCLRT
 70
     0
  9
$DIMTFAC
 40
1.0
  9
$DIMGAP
 40
0.09
  9
$DIMJUST
 70
     0
  9
$DIMSD1
 70
     0
  9
$DIMSD2
 70
     0
  9
$DIMTOLJ
 70
     1
  9
$DIMTZIN
 70
     0
  9
$DIMALTZ
 70
     0
  9
$DIMALTTZ
 70
     0
  9
$DIMUPT
 70
     0
  9
$DIMDEC
 70
     4
  9
$DIMTDEC
 70
     4
  9
$DIMALTU
 70
     2
  9
$DIMALTTD
 70
     2
  9
$DIMTXSTY
  7
Standard
  9
$DIMAUNIT
 70
     0
  9
$DIMADEC
 70
     0
  9
$DIMALTRND
 40
0.0
  9
$DIMAZIN
 70
     0
  9
$DIMDSEP
 70
    46
  9
$DIMATFIT
 70
     3
  9
$DIMFRAC
 70
     0
  9
$DIMLDRBLK
  1

  9
$DIMLUNIT
 70
     2
  9
$DIMLWD
 70
    -2
  9
$DIMLWE
 70
    -2
  9
$DIMTMOVE
 70
     0
  9
$DIMFXL
 40
1.0
  9
$DIMFXLON
 70
     0
  9
$DIMJOGANG
 40
0.7853981633974483
  9
$DIMTFILL
 70
     0
  9
$DIMTFILLCLR
 70
     0
  9
$DIMARCSYM
 70
     0
  9
$DIMLTYPE
  6

  9
$DIMLTEX1
  6

  9
$DIMLTEX2
  6

  9
$DIMTXTDIRECTION
 70
     0
  9
$LUNITS
 70
     2
  9
$LUPREC
 70
     4
  9
$SKETCHINC
 40
0.1
  9
$FILLETRAD
 40
0.0
  9
$AUNITS
 70
     0
  9
$AUPREC
 70
     0
  9
$MENU
  1
.
  9
$ELEVATION
 40
0.0
  9
$PELEVATION
 40
0.0
  9
$THICKNESS
 40
0.0
  9
$LIMCHECK
 70
     0
  9
$CHAMFERA
 40
0.0
  9
$CHAMFERB
 40
0.0
  9
$CHAMFERC
 40
0.0
  9
$CHAMFERD
 40
0.0
  9
$SKPOLY
 70
     0
  9
$TDCREATE
 40
2460724.706493055
  9
$TDUCREATE
 40
2460724.998159723
  9
$TDUPDATE
 40
2460724.706493055
  9
$TDUUPDATE
 40
2460724.998159723
  9
$TDINDWG
 40
0.0000000000
  9
$TDUSRTIMER
 40
0.0000000000
  9
$USRTIMER
 70
     1
  9
$ANGBASE
 50
0.0
  9
$ANGDIR
 70
     0
  9
$PDMODE
 70
     0
  9
$PDSIZE
 40
0.0
  9
$PLINEWID
 40
0.0
  9
$SPLFRAME
 70
     0
  9
$SPLINETYPE
 70
     6
  9
$SPLINESEGS
 70
     8
  9
$HANDSEED
  5
92
  9
$SURFTAB1
 70
     6
  9
$SURFTAB2
 70
     6
  9
$SURFTYPE
 70
     6
  9
$SURFU
 70
     6
  9
$SURFV
 70
     6
  9
$UCSBASE
  2

  9
$UCSNAME
  2

  9
$UCSORG
 10
0.0
 20
0.0
 30
0.0
  9
$UCSXDIR
 10
1.0
 20
0.0
 30
0.0
  9
$UCSYDIR
 10
0.0
 20
1.0
 30
0.0
  9
$UCSORTHOREF
  2

  9
$UCSORTHOVIEW
 70
     0
  9
$UCSORGTOP
 10
0.0
 20
0.0
 30
0.0
  9
$UCSORGBOTTOM
 10
0.0
 20
0.0
 30
0.0
  9
$UCSORGLEFT
 10
0.0
 20
0.0
 30
0.0
  9
$UCSORGRIGHT
 10
0.0
 20
0.0
 30
0.0
  9
$UCSORGFRONT
 10
0.0
 20
0.0
 30
0.0
  9
$UCSORGBACK
 10
0.0
 20
0.0
 30
0.0
  9
$PUCSBASE
  2

  9
$PUCSNAME
  2

  9
$PUCSORG
 10
0.0
 20
0.0
 30
0.0
  9
$PUCSXDIR
 10
1.0
 20
0.0
 30
0.0
  9
$PUCSYDIR
 10
0.0
 20
1.0
 30
0.0
  9
$PUCSORTHOREF
  2

  9
$PUCSORTHOVIEW
 70
     0
  9
$PUCSORGTOP
 10
0.0
 20
0.0
 30
0.0
  9
$PUCSORGBOTTOM
 10
0.0
 20
0.0
 30
0.0
  9
$PUCSORGLEFT
 10
0.0
 20
0.0
 30
0.0
  9
$PUCSORGRIGHT
 10
0.0
 20
0.0
 30
0.0
  9
$PUCSORGFRONT
 10
0.0
 20
0.0
 30
0.0
  9
$PUCSORGBACK
 10
0.0
 20
0.0
 30
0.0
  9
$USERI1
 70
     0
  9
$USERI2
 70
     0
  9
$USERI3
 70
     0
  9
$USERI4
 70
     0
  9
$USERI5
 70
     0
  9
$USERR1
 40
0.0
  9
$USERR2
 40
0.0
  9
$USERR3
 40
0.0
  9
$USERR4
 40
0.0
  9
$USERR5
 40
0.0
  9
$WORLDVIEW
 70
     1
  9
$SHADEDGE
 70
     3
  9
$SHADEDIF
 70
    70
  9
$TILEMODE
 70
     1
  9
$MAXACTVP
 70
    64
  9
$PINSBASE
 10
0.0
 20
0.0
 30
0.0
  9
$PLIMCHECK
 70
     0
  9
$PEXTMIN
 10
1.000000000000000E+20
 20
1.000000000000000E+20
 30
1.000000000000000E+20
  9
$PEXTMAX
 10
-1.000000000000000E+20
 20
-1.000000000000000E+20
 30
-1.000000000000000E+20
  9
$PLIMMIN
 10
0.0
 20
0.0
  9
$PLIMMAX
 10
12.0
 20
9.0
  9
$UNITMODE
 70
     0
  9
$VISRETAIN
 70
     1
  9
$PLINEGEN
 70
     0
  9
$PSLTSCALE
 70
     1
  9
$TREEDEPTH
 70
  3020
  9
$CMLSTYLE
  2
Standard
  9
$CMLJUST
 70
     0
  9
$CMLSCALE
 40
1.0
  9
$PROXYGRAPHICS
 70
     1
  9
$MEASUREMENT
 70
     0
  9
$CELWEIGHT
370
    -1
  9
$ENDCAPS
280
     0
  9
$JOINSTYLE
280
     0
  9
$LWDISPLAY
290
     1
  9
$INSUNITS
 70
     0
  9
$HYPERLINKBASE
  1

  9
$STYLESHEET
  1

  9
$XEDIT
290
     1
  9
$CEPSNTYPE
380
     0
  9
$PSTYLEMODE
290
     1
  9
$FINGERPRINTGUID
  2
{D4D8FE7F-E938-C446-95C7-D2D64A73323C}
  9
$VERSIONGUID
  2
{9B9F0D3B-3BF4-2A40-9360-2A9DF6BDEA21}
  9
$EXTNAMES
290
     1
  9
$PSVPSCALE
 40
0.0
  9
$OLESTARTUP
290
     0
  9
$SORTENTS
280
   127
  9
$INDEXCTL
280
     0
  9
$HIDETEXT
280
     1
  9
$XCLIPFRAME
280
     2
  9
$HALOGAP
280
     0
  9
$OBSCOLOR
 70
   257
  9
$OBSLTYPE
280
     0
  9
$INTERSECTIONDISPLAY
280
     0
  9
$INTERSECTIONCOLOR
 70
   257
  9
$DIMASSOC
280
     2
  9
$PROJECTNAME
  1

  9
$CAMERADISPLAY
290
     0
  9
$LENSLENGTH
 40
50.0
  9
$CAMERAHEIGHT
 40
0.0
  9
$STEPSPERSEC
 40
2.0
  9
$STEPSIZE
 40
6.0
  9
$3DDWFPREC
 40
2.0
  9
$PSOLWIDTH
 40
0.25
  9
$PSOLHEIGHT
 40
4.0
  9
$LOFTANG1
 40
1.570796326794896
  9
$LOFTANG2
 40
1.570796326794896
  9
$LOFTMAG1
 40
0.0
  9
$LOFTMAG2
 40
0.0
  9
$LOFTPARAM
 70
     7
  9
$LOFTNORMALS
280
     1
  9
$LATITUDE
 40
37.795
  9
$LONGITUDE
 40
-122.394
  9
$NORTHDIRECTION
 40
0.0
  9
$TIMEZONE
 70
 -8000
  9
$LIGHTGLYPHDISPLAY
280
     1
  9
$TILEMODELIGHTSYNCH
280
     1
  9
$CMATERIAL
347
11
  9
$SOLIDHIST
280
     0
  9
$SHOWHIST
280
     1
  9
$DWFFRAME
280
     2
  9
$DGNFRAME
280
     0
  9
$REALWORLDSCALE
290
     1
  9
$INTERFERECOLOR
 62
     1
  9
$INTERFEREOBJVS
345
33
  9
$INTERFEREVPVS
346
30
  9
$CSHADOW
280
     0
  9
$SHADOWPLANELOCATION
 40
0.0
  0
ENDSEC
  0
SECTION
  2
CLASSES
  0
CLASS
  1
ACDBDICTIONARYWDFLT
  2
AcDbDictionaryWithDefault
  3
ObjectDBX Classes
 90
        0
 91
        1
280
     0
281
     0
  0
CLASS
  1
MATERIAL
  2
AcDbMaterial
  3
ObjectDBX Classes
 90
     1153
 91
        3
280
     0
281
     0
  0
CLASS
  1
VISUALSTYLE
  2
AcDbVisualStyle
  3
ObjectDBX Classes
 90
     4095
 91
       24
280
     0
281
     0
  0
CLASS
  1
SCALE
  2
AcDbScale
  3
ObjectDBX Classes
 90
     1153
 91
       17
280
     0
281
     0
  0
CLASS
  1
TABLESTYLE
  2
AcDbTableStyle
  3
ObjectDBX Classes
 90
     4095
 91
        1
280
     0
281
     0
  0
CLASS
  1
MLEADERSTYLE
  2
AcDbMLeaderStyle
  3
ACDB_MLEADERSTYLE_CLASS
 90
     4095
 91
        1
280
     0
281
     0
  0
CLASS
  1
ACDBSECTIONVIEWSTYLE
  2
AcDbSectionViewStyle
  3
ObjectDBX Classes
 90
     1025
 91
        1
280
     0
281
     0
  0
CLASS
  1
ACDBDETAILVIEWSTYLE
  2
AcDbDetailViewStyle
  3
ObjectDBX Classes
 90
     1025
 91
        1
280
     0
281
     0
  0
CLASS
  1
DICTIONARYVAR
  2
AcDbDictionaryVar
  3
ObjectDBX Classes
 90
        0
 91
        5
280
     0
281
     0
  0
CLASS
  1
CELLSTYLEMAP
  2
AcDbCellStyleMap
  3
ObjectDBX Classes
 90
     1152
 91
        1
280
     0
281
     0
  0
ENDSEC
  0
SECTION
  2
TABLES
  0
TABLE
  2
VPORT
  5
8
330
0
100
AcDbSymbolTable
 70
     1
  0
VPORT
  5
57
330
8
100
AcDbSymbolTableRecord
100
AcDbViewportTableRecord
  2
*Active
 70
     0
 10
0.0
 20
0.0
 11
1.0
 21
1.0
 12
0.0
 22
0.0
 13
0.0
 23
0.0
 14
1.0
 24
1.0
 15
0.0
 25
0.0
 16
0.0
 26
0.0
 36
1.0
 17
144.0
 27
-280.0
 37
0.0
 40
571.2
 41
0.5142857142857143
 42
50.0
 43
0.0
 44
0.0
 50
0.0
 51
0.0
 71
     0
 72
   100
 73
     1
 74
     1
 75
     0
 76
     0
 77
     0
 78
     0
281
     0
 65
     1
110
0.0
120
0.0
130
0.0
111
1.0
121
0.0
131
0.0
112
0.0
122
1.0
132
0.0
 79
     0
146
0.0
 60
     3
 61
     5
292
     1
282
     1
141
0.0
142
0.0
 63
   250
421
  3355443
  0
ENDTAB
  0
TABLE
  2
LTYPE
  5
5
330
0
100
AcDbSymbolTable
 70
     1
  0
LTYPE
  5
5B
330
5
100
AcDbSymbolTableRecord
100
AcDbLinetypeTableRecord
  2
ByBlock
 70
     0
  3

 72
    65
 73
     0
 40
0.0
  0
LTYPE
  5
5C
330
5
100
AcDbSymbolTableRecord
100
AcDbLinetypeTableRecord
  2
ByLayer
 70
     0
  3

 72
    65
 73
     0
 40
0.0
  0
LTYPE
  5
5D
330
5
100
AcDbSymbolTableRecord
100
AcDbLinetypeTableRecord
  2
Continuous
 70
     0
  3
Solid line
 72
    65
 73
     0
 40
0.0
  0
ENDTAB
  0
TABLE
  2
LAYER
  5
2
330
0
100
AcDbSymbolTable
 70
     2
  0
LAYER
  5
54
330
2
100
AcDbSymbolTableRecord
100
AcDbLayerTableRecord
  2
0
 70
     0
 62
     7
  6
Continuous
370
    -3
390
F
347
21
348
0
  0
LAYER
  5
78
330
2
100
AcDbSymbolTableRecord
100
AcDbLayerTableRecord
  2
Layer 1
 70
     0
 62
     7
  6
Continuous
370
     0
390
F
347
21
348
0
  0
ENDTAB
  0
TABLE
  2
STYLE
  5
3
330
0
100
AcDbSymbolTable
 70
     2
  0
STYLE
  5
55
330
3
100
AcDbSymbolTableRecord
100
AcDbTextStyleTableRecord
  2
Standard
 70
     0
 40
0.0
 41
1.0
 50
0.0
 71
     0
 42
0.2
  3
txt
  4

  0
STYLE
  5
5A
330
3
100
AcDbSymbolTableRecord
100
AcDbTextStyleTableRecord
  2
Annotative
 70
     0
 40
0.0
 41
1.0
 50
0.0
 71
     0
 42
0.2
  3
txt
  4

1001
AcadAnnotative
1000
AnnotativeData
1002
{
1070
     1
1070
     1
1002
}
  0
ENDTAB
  0
TABLE
  2
VIEW
  5
6
330
0
100
AcDbSymbolTable
 70
     0
  0
ENDTAB
  0
TABLE
  2
UCS
  5
7
330
0
100
AcDbSymbolTable
 70
     0
  0
ENDTAB
  0
TABLE
  2
APPID
  5
9
330
0
100
AcDbSymbolTable
 70
     2
  0
APPID
  5
56
330
9
100
AcDbSymbolTableRecord
100
AcDbRegAppTableRecord
  2
ACAD
 70
     0
  0
APPID
  5
5E
330
9
100
AcDbSymbolTableRecord
100
AcDbRegAppTableRecord
  2
AcadAnnotative
 70
     0
  0
ENDTAB
  0
TABLE
  2
DIMSTYLE
  5
A
330
0
100
AcDbSymbolTable
 70
     2
100
AcDbDimStyleTable
 71
     0
  0
DIMSTYLE
105
58
330
A
100
AcDbSymbolTableRecord
100
AcDbDimStyleTableRecord
  2
Standard
 70
     0
340
55
  0
DIMSTYLE
105
59
330
A
100
AcDbSymbolTableRecord
100
AcDbDimStyleTableRecord
  2
Annotative
 70
     0
340
55
1001
AcadAnnotative
1000
AnnotativeData
1002
{
1070
     1
1070
     1
1002
}
  0
ENDTAB
  0
TABLE
  2
BLOCK_RECORD
  5
1
330
0
100
AcDbSymbolTable
 70
     2
  0
BLOCK_RECORD
  5
70
330
1
100
AcDbSymbolTableRecord
100
AcDbBlockTableRecord
  2
*Model_Space
340
73
 70
     0
280
     1
281
     0
  0
BLOCK_RECORD
  5
6C
330
1
100
AcDbSymbolTableRecord
100
AcDbBlockTableRecord
  2
*Paper_Space
340
6F
 70
     0
280
     1
281
     0
  0
BLOCK_RECORD
  5
74
330
1
100
AcDbSymbolTableRecord
100
AcDbBlockTableRecord
  2
*Paper_Space0
340
77
 70
     0
280
     1
281
     0
  0
BLOCK_RECORD
  5
79
330
1
100
AcDbSymbolTableRecord
100
AcDbBlockTableRecord
  2
Block_0
340
0
102
{BLKREFS
331
7A
102
}
 70
     0
280
     1
281
     0
  0
ENDTAB
  0
ENDSEC
  0
SECTION
  2
BLOCKS
  0
BLOCK
  5
71
330
70
100
AcDbEntity
  8
0
100
AcDbBlockBegin
  2
*Model_Space
 70
     0
 10
0.0
 20
0.0
 30
0.0
  3
*Model_Space
  1

  0
ENDBLK
  5
72
330
70
100
AcDbEntity
  8
0
100
AcDbBlockEnd
  0
BLOCK
  5
6D
330
6C
100
AcDbEntity
 67
     1
  8
0
100
AcDbBlockBegin
  2
*Paper_Space
 70
     0
 10
0.0
 20
0.0
 30
0.0
  3
*Paper_Space
  1

  0
ENDBLK
  5
6E
330
6C
100
AcDbEntity
 67
     1
  8
0
100
AcDbBlockEnd
  0
BLOCK
  5
75
330
74
100
AcDbEntity
 67
     1
  8
0
100
AcDbBlockBegin
  2
*Paper_Space0
 70
     0
 10
0.0
 20
0.0
 30
0.0
  3
*Paper_Space0
  1

  0
ENDBLK
  5
76
330
74
100
AcDbEntity
 67
     1
  8
0
100
AcDbBlockEnd
  0
BLOCK
  5
7B
330
79
100
AcDbEntity
  8
0
100
AcDbBlockBegin
  2
Block_0
 70
     0
 10
0.0
 20
0.0
 30
0.0
  3
Block_0
  1

  0
SPLINE
  5
7D
330
79
100
AcDbEntity
  8
Layer 1
100
AcDbSpline
210
0.0
220
0.0
230
1.0
 70
    11
 71
     3
 72
    29
 73
    25
 74
     0
 42
0.0000000001
 43
0.0000000001
 40
0.0
 40
0.0
 40
0.0
 40
0.0
 40
1.0
 40
1.0
 40
1.0
 40
2.0
 40
2.0
 40
2.0
 40
3.0
 40
3.0
 40
3.0
 40
4.0
 40
4.0
 40
4.0
 40
5.0
 40
5.0
 40
5.0
 40
6.0
 40
6.0
 40
6.0
 40
7.0
 40
7.0
 40
7.0
 40
8.0
 40
8.0
 40
8.0
 40
8.0
 10
110.1979858632403
 20
-292.1681573645219
 30
0.0
 10
110.1979858632403
 20
-292.1681573645219
 30
0.0
 10
121.0251343007403
 20
-292.1681573645219
 30
0.0
 10
121.0251343007403
 20
-292.1681573645219
 30
0.0
 10
121.0251343007403
 20
-292.1681573645219
 30
0.0
 10
121.0251343007403
 20
-332.9425714270219
 30
0.0
 10
121.0251343007403
 20
-332.9425714270219
 30
0.0
 10
121.0251343007403
 20
-332.9425714270219
 30
0.0
 10
120.1481811757403
 20
-333.8180597082719
 30
0.0
 10
120.1481811757403
 20
-333.8180597082719
 30
0.0
 10
120.1481811757403
 20
-333.8180597082719
 30
0.0
 10
119.4890014882403
 20
-333.8585870520219
 30
0.0
 10
119.4890014882403
 20
-333.8585870520219
 30
0.0
 10
119.4890014882403
 20
-333.8585870520219
 30
0.0
 10
111.1022827382403
 20
-333.8585870520219
 30
0.0
 10
111.1022827382403
 20
-333.8585870520219
 30
0.0
 10
111.1022827382403
 20
-333.8585870520219
 30
0.0
 10
110.2370483632403
 20
-332.9728448645219
 30
0.0
 10
110.2370483632403
 20
-332.9728448645219
 30
0.0
 10
110.2370483632403
 20
-332.9728448645219
 30
0.0
 10
110.1979858632403
 20
-332.3229425207719
 30
0.0
 10
110.1979858632403
 20
-332.3229425207719
 30
0.0
 10
110.1979858632403
 20
-332.3229425207719
 30
0.0
 10
110.1979858632403
 20
-292.1681573645219
 30
0.0
 10
110.1979858632403
 20
-292.1681573645219
 30
0.0
  0
SPLINE
  5
7E
330
79
100
AcDbEntity
  8
Layer 1
100
AcDbSpline
210
0.0
220
0.0
230
1.0
 70
     9
 71
     3
 72
    59
 73
    55
 74
     0
 42
0.0000000001
 43
0.0000000001
 40
0.0
 40
0.0
 40
0.0
 40
0.0
 40
1.0
 40
1.0
 40
1.0
 40
2.0
 40
2.0
 40
2.0
 40
3.0
 40
3.0
 40
3.0
 40
4.0
 40
4.0
 40
4.0
 40
5.0
 40
5.0
 40
5.0
 40
6.0
 40
6.0
 40
6.0
 40
7.0
 40
7.0
 40
7.0
 40
8.0
 40
8.0
 40
8.0
 40
9.0
 40
9.0
 40
9.0
 40
10.0
 40
10.0
 40
10.0
 40
11.0
 40
11.0
 40
11.0
 40
12.0
 40
12.0
 40
12.0
 40
13.0
 40
13.0
 40
13.0
 40
14.0
 40
14.0
 40
14.0
 40
15.0
 40
15.0
 40
15.0
 40
16.0
 40
16.0
 40
16.0
 40
17.0
 40
17.0
 40
17.0
 40
18.0
 40
18.0
 40
18.0
 40
18.0
 10
122.1950561757403
 20
-278.1915948645219
 30
0.0
 10
122.1950561757403
 20
-278.1915948645219
 30
0.0
 10
122.1950561757403
 20
-278.4347589270219
 30
0.0
 10
122.1950561757403
 20
-278.4347589270219
 30
0.0
 10
122.1950561757403
 20
-280.0104425207719
 30
0.0
 10
121.6091186757403
 20
-281.4816339270219
 30
0.0
 10
120.4538452382403
 20
-282.8092706457719
 30
0.0
 10
120.4538452382403
 20
-282.8092706457719
 30
0.0
 10
120.3688843007403
 20
-282.8991143957719
 30
0.0
 10
120.3688843007403
 20
-282.8991143957719
 30
0.0
 10
119.0075561757403
 20
-284.2247979895219
 30
0.0
 10
117.4460327382403
 20
-284.8976495520219
 30
0.0
 10
115.7311889882403
 20
-284.8976495520219
 30
0.0
 10
115.7311889882403
 20
-284.8976495520219
 30
0.0
 10
115.4890014882403
 20
-284.8976495520219
 30
0.0
 10
115.4890014882403
 20
-284.8976495520219
 30
0.0
 10
113.8679077382403
 20
-284.8976495520219
 30
0.0
 10
112.3854858632403
 20
-284.2897393957719
 30
0.0
 10
111.0827514882403
 20
-283.0895440832719
 30
0.0
 10
111.0827514882403
 20
-283.0895440832719
 30
0.0
 10
111.0143921132403
 20
-283.0216729895219
 30
0.0
 10
111.0143921132403
 20
-283.0216729895219
 30
0.0
 10
110.3102905507403
 20
-282.2843683020219
 30
0.0
 10
109.8415405507403
 20
-281.6163995520219
 30
0.0
 10
109.5807983632403
 20
-280.9806573645219
 30
0.0
 10
109.2165405507403
 20
-280.1569268957719
 30
0.0
 10
109.0241577382403
 20
-279.3019464270219
 30
0.0
 10
109.0241577382403
 20
-278.4743097082719
 30
0.0
 10
109.0241577382403
 20
-278.4743097082719
 30
0.0
 10
109.0241577382403
 20
-278.1515558020219
 30
0.0
 10
109.0241577382403
 20
-278.1515558020219
 30
0.0
 10
109.0241577382403
 20
-276.5299737707719
 30
0.0
 10
109.6608764882403
 20
-275.0197198645219
 30
0.0
 10
110.9177124257403
 20
-273.6618097082719
 30
0.0
 10
110.9177124257403
 20
-273.6618097082719
 30
0.0
 10
111.0348999257403
 20
-273.5485284582719
 30
0.0
 10
111.0348999257403
 20
-273.5485284582719
 30
0.0
 10
111.0348999257403
 20
-273.5485284582719
 30
0.0
 10
111.7995483632403
 20
-272.9025323645219
 30
0.0
 10
111.7995483632403
 20
-272.9025323645219
 30
0.0
 10
112.9860718007403
 20
-272.1227472082719
 30
0.0
 10
114.2136108632403
 20
-271.7282159582719
 30
0.0
 10
115.4489624257403
 20
-271.7282159582719
 30
0.0
 10
115.4489624257403
 20
-271.7282159582719
 30
0.0
 10
115.7712280507403
 20
-271.7282159582719
 30
0.0
 10
115.7712280507403
 20
-271.7282159582719
 30
0.0
 10
117.3229858632403
 20
-271.7282159582719
 30
0.0
 10
118.7809936757403
 20
-272.3141534582719
 30
0.0
 10
120.1081421132403
 20
-273.4694268957719
 30
0.0
 10
120.1081421132403
 20
-273.4694268957719
 30
0.0
 10
120.1960327382403
 20
-273.5534112707719
 30
0.0
 10
120.1960327382403
 20
-273.5534112707719
 30
0.0
 10
121.5231811757403
 20
-274.9137628332719
 30
0.0
 10
122.1960327382403
 20
-276.4747979895219
 30
0.0
 10
122.1950561757403
 20
-278.1915948645219
 30
0.0
  0
HATCH
  5
7F
330
79
100
AcDbEntity
  8
Layer 1
 62
    18
420
        0
440
 33554687
100
AcDbHatch
 10
0.0
 20
0.0
 30
0.0
210
0.0
220
0.0
230
1.0
  2
SOLID
 70
     1
 71
     1
 91
        2
 92
        1
 93
        1
 72
     4
 94
        3
 73
     0
 74
     0
 95
       29
 96
       25
 40
0.0
 40
0.0
 40
0.0
 40
0.0
 40
1.0
 40
1.0
 40
1.0
 40
2.0
 40
2.0
 40
2.0
 40
3.0
 40
3.0
 40
3.0
 40
4.0
 40
4.0
 40
4.0
 40
5.0
 40
5.0
 40
5.0
 40
6.0
 40
6.0
 40
6.0
 40
7.0
 40
7.0
 40
7.0
 40
8.0
 40
8.0
 40
8.0
 40
8.0
 10
110.1979858632403
 20
-292.1681573645219
 10
110.1979858632403
 20
-292.1681573645219
 10
121.0251343007403
 20
-292.1681573645219
 10
121.0251343007403
 20
-292.1681573645219
 10
121.0251343007403
 20
-292.1681573645219
 10
121.0251343007403
 20
-332.9425714270219
 10
121.0251343007403
 20
-332.9425714270219
 10
121.0251343007403
 20
-332.9425714270219
 10
120.1481811757403
 20
-333.8180597082719
 10
120.1481811757403
 20
-333.8180597082719
 10
120.1481811757403
 20
-333.8180597082719
 10
119.4890014882403
 20
-333.8585870520219
 10
119.4890014882403
 20
-333.8585870520219
 10
119.4890014882403
 20
-333.8585870520219
 10
111.1022827382403
 20
-333.8585870520219
 10
111.1022827382403
 20
-333.8585870520219
 10
111.1022827382403
 20
-333.8585870520219
 10
110.2370483632403
 20
-332.9728448645219
 10
110.2370483632403
 20
-332.9728448645219
 10
110.2370483632403
 20
-332.9728448645219
 10
110.1979858632403
 20
-332.3229425207719
 10
110.1979858632403
 20
-332.3229425207719
 10
110.1979858632403
 20
-332.3229425207719
 10
110.1979858632403
 20
-292.1681573645219
 10
110.1979858632403
 20
-292.1681573645219
 97
        0
 97
        1
330
7D
 92
        1
 93
        1
 72
     4
 94
        3
 73
     0
 74
     0
 95
       59
 96
       55
 40
0.0
 40
0.0
 40
0.0
 40
0.0
 40
1.0
 40
1.0
 40
1.0
 40
2.0
 40
2.0
 40
2.0
 40
3.0
 40
3.0
 40
3.0
 40
4.0
 40
4.0
 40
4.0
 40
5.0
 40
5.0
 40
5.0
 40
6.0
 40
6.0
 40
6.0
 40
7.0
 40
7.0
 40
7.0
 40
8.0
 40
8.0
 40
8.0
 40
9.0
 40
9.0
 40
9.0
 40
10.0
 40
10.0
 40
10.0
 40
11.0
 40
11.0
 40
11.0
 40
12.0
 40
12.0
 40
12.0
 40
13.0
 40
13.0
 40
13.0
 40
14.0
 40
14.0
 40
14.0
 40
15.0
 40
15.0
 40
15.0
 40
16.0
 40
16.0
 40
16.0
 40
17.0
 40
17.0
 40
17.0
 40
18.0
 40
18.0
 40
18.0
 40
18.0
 10
122.1950561757403
 20
-278.1915948645219
 10
122.1950561757403
 20
-278.1915948645219
 10
122.1950561757403
 20
-278.4347589270219
 10
122.1950561757403
 20
-278.4347589270219
 10
122.1950561757403
 20
-280.0104425207719
 10
121.6091186757403
 20
-281.4816339270219
 10
120.4538452382403
 20
-282.8092706457719
 10
120.4538452382403
 20
-282.8092706457719
 10
120.3688843007403
 20
-282.8991143957719
 10
120.3688843007403
 20
-282.8991143957719
 10
119.0075561757403
 20
-284.2247979895219
 10
117.4460327382403
 20
-284.8976495520219
 10
115.7311889882403
 20
-284.8976495520219
 10
115.7311889882403
 20
-284.8976495520219
 10
115.4890014882403
 20
-284.8976495520219
 10
115.4890014882403
 20
-284.8976495520219
 10
113.8679077382403
 20
-284.8976495520219
 10
112.3854858632403
 20
-284.2897393957719
 10
111.0827514882403
 20
-283.0895440832719
 10
111.0827514882403
 20
-283.0895440832719
 10
111.0143921132403
 20
-283.0216729895219
 10
111.0143921132403
 20
-283.0216729895219
 10
110.3102905507403
 20
-282.2843683020219
 10
109.8415405507403
 20
-281.6163995520219
 10
109.5807983632403
 20
-280.9806573645219
 10
109.2165405507403
 20
-280.1569268957719
 10
109.0241577382403
 20
-279.3019464270219
 10
109.0241577382403
 20
-278.4743097082719
 10
109.0241577382403
 20
-278.4743097082719
 10
109.0241577382403
 20
-278.1515558020219
 10
109.0241577382403
 20
-278.1515558020219
 10
109.0241577382403
 20
-276.5299737707719
 10
109.6608764882403
 20
-275.0197198645219
 10
110.9177124257403
 20
-273.6618097082719
 10
110.9177124257403
 20
-273.6618097082719
 10
111.0348999257403
 20
-273.5485284582719
 10
111.0348999257403
 20
-273.5485284582719
 10
111.0348999257403
 20
-273.5485284582719
 10
111.7995483632403
 20
-272.9025323645219
 10
111.7995483632403
 20
-272.9025323645219
 10
112.9860718007403
 20
-272.1227472082719
 10
114.2136108632403
 20
-271.7282159582719
 10
115.4489624257403
 20
-271.7282159582719
 10
115.4489624257403
 20
-271.7282159582719
 10
115.7712280507403
 20
-271.7282159582719
 10
115.7712280507403
 20
-271.7282159582719
 10
117.3229858632403
 20
-271.7282159582719
 10
118.7809936757403
 20
-272.3141534582719
 10
120.1081421132403
 20
-273.4694268957719
 10
120.1081421132403
 20
-273.4694268957719
 10
120.1960327382403
 20
-273.5534112707719
 10
120.1960327382403
 20
-273.5534112707719
 10
121.5231811757403
 20
-274.9137628332719
 10
122.1960327382403
 20
-276.4747979895219
 10
122.1950561757403
 20
-278.1915948645219
 97
        0
 97
        1
330
7E
 75
     2
 76
     1
 98
        1
 10
0.0
 20
0.0
450
        0
451
        0
460
0.0
461
0.0
452
        0
462
0.0
453
        0
470

  0
SPLINE
  5
80
330
79
100
AcDbEntity
  8
Layer 1
100
AcDbSpline
210
0.0
220
0.0
230
1.0
 70
     9
 71
     3
 72
    80
 73
    76
 74
     0
 42
0.0000000001
 43
0.0000000001
 40
0.0
 40
0.0
 40
0.0
 40
0.0
 40
1.0
 40
1.0
 40
1.0
 40
2.0
 40
2.0
 40
2.0
 40
3.0
 40
3.0
 40
3.0
 40
4.0
 40
4.0
 40
4.0
 40
5.0
 40
5.0
 40
5.0
 40
6.0
 40
6.0
 40
6.0
 40
7.0
 40
7.0
 40
7.0
 40
8.0
 40
8.0
 40
8.0
 40
9.0
 40
9.0
 40
9.0
 40
10.0
 40
10.0
 40
10.0
 40
11.0
 40
11.0
 40
11.0
 40
12.0
 40
12.0
 40
12.0
 40
13.0
 40
13.0
 40
13.0
 40
14.0
 40
14.0
 40
14.0
 40
15.0
 40
15.0
 40
15.0
 40
16.0
 40
16.0
 40
16.0
 40
17.0
 40
17.0
 40
17.0
 40
18.0
 40
18.0
 40
18.0
 40
19.0
 40
19.0
 40
19.0
 40
20.0
 40
20.0
 40
20.0
 40
21.0
 40
21.0
 40
21.0
 40
22.0
 40
22.0
 40
22.0
 40
23.0
 40
23.0
 40
23.0
 40
24.0
 40
24.0
 40
24.0
 40
25.0
 40
25.0
 40
25.0
 40
25.0
 10
168.6911499257403
 20
-308.8537042395219
 30
0.0
 10
168.6911499257403
 20
-308.8537042395219
 30
0.0
 10
168.6911499257403
 20
-332.6964776770219
 30
0.0
 10
168.6911499257403
 20
-332.6964776770219
 30
0.0
 10
168.6911499257403
 20
-332.6964776770219
 30
0.0
 10
167.9138061757403
 20
-333.8585870520219
 30
0.0
 10
167.9138061757403
 20
-333.8585870520219
 30
0.0
 10
167.9138061757403
 20
-333.8585870520219
 30
0.0
 10
158.7223999257403
 20
-333.8585870520219
 30
0.0
 10
158.7223999257403
 20
-333.8585870520219
 30
0.0
 10
158.7223999257403
 20
-333.8585870520219
 30
0.0
 10
157.9450561757403
 20
-332.6964776770219
 30
0.0
 10
157.9450561757403
 20
-332.6964776770219
 30
0.0
 10
157.9450561757403
 20
-332.6964776770219
 30
0.0
 10
157.9450561757403
 20
-308.7716729895219
 30
0.0
 10
157.9450561757403
 20
-308.7716729895219
 30
0.0
 10
157.9450561757403
 20
-306.0866143957719
 30
0.0
 10
156.9304077382403
 20
-304.4508722082719
 30
0.0
 10
154.7497436757403
 20
-303.6251886145219
 30
0.0
 10
153.7116577382403
 20
-303.1696222082719
 30
0.0
 10
152.4196655507403
 20
-302.9542901770219
 30
0.0
 10
150.8356811757403
 20
-302.9542901770219
 30
0.0
 10
150.8356811757403
 20
-302.9542901770219
 30
0.0
 10
150.1901733632403
 20
-302.9542901770219
 30
0.0
 10
150.1901733632403
 20
-302.9542901770219
 30
0.0
 10
146.5261108632403
 20
-302.9542901770219
 30
0.0
 10
144.8532593007403
 20
-303.6290948645219
 30
0.0
 10
144.0944702382403
 20
-304.1945245520219
 30
0.0
 10
144.0944702382403
 20
-304.1945245520219
 30
0.0
 10
143.9763061757403
 20
-304.2750909582719
 30
0.0
 10
143.9763061757403
 20
-304.2750909582719
 30
0.0
 10
142.6677124257403
 20
-305.0685479895219
 30
0.0
 10
142.0300171132403
 20
-306.6056573645219
 30
0.0
 10
142.0300171132403
 20
-308.9752862707719
 30
0.0
 10
142.0300171132403
 20
-308.9752862707719
 30
0.0
 10
142.0300171132403
 20
-332.8659112707719
 30
0.0
 10
142.0300171132403
 20
-332.8659112707719
 30
0.0
 10
142.0300171132403
 20
-332.8659112707719
 30
0.0
 10
141.0300171132403
 20
-333.8585870520219
 30
0.0
 10
141.0300171132403
 20
-333.8585870520219
 30
0.0
 10
141.0300171132403
 20
-333.8585870520219
 30
0.0
 10
132.2409546132403
 20
-333.8585870520219
 30
0.0
 10
132.2409546132403
 20
-333.8585870520219
 30
0.0
 10
132.2409546132403
 20
-333.8585870520219
 30
0.0
 10
131.2438843007403
 20
-332.8620050207719
 30
0.0
 10
131.2438843007403
 20
-332.8620050207719
 30
0.0
 10
131.2438843007403
 20
-332.8620050207719
 30
0.0
 10
131.2438843007403
 20
-293.3703058020219
 30
0.0
 10
131.2438843007403
 20
-293.3703058020219
 30
0.0
 10
131.2438843007403
 20
-293.3703058020219
 30
0.0
 10
132.2370483632403
 20
-292.3698175207719
 30
0.0
 10
132.2370483632403
 20
-292.3698175207719
 30
0.0
 10
132.2370483632403
 20
-292.3698175207719
 30
0.0
 10
141.0329468007403
 20
-292.3698175207719
 30
0.0
 10
141.0329468007403
 20
-292.3698175207719
 30
0.0
 10
141.0329468007403
 20
-292.3698175207719
 30
0.0
 10
142.0300171132403
 20
-293.3673761145219
 30
0.0
 10
142.0300171132403
 20
-293.3673761145219
 30
0.0
 10
142.0300171132403
 20
-293.3673761145219
 30
0.0
 10
142.0300171132403
 20
-293.8390558020219
 30
0.0
 10
142.0300171132403
 20
-293.8390558020219
 30
0.0
 10
143.0768921132403
 20
-293.4152276770219
 30
0.0
 10
144.2614624257403
 20
-293.0104425207719
 30
0.0
 10
145.5739624257403
 20
-292.6320245520219
 30
0.0
 10
146.9157593007403
 20
-292.3180597082719
 30
0.0
 10
148.4841186757403
 20
-292.1691339270219
 30
0.0
 10
150.3112671132403
 20
-292.1691339270219
 30
0.0
 10
150.3112671132403
 20
-292.1691339270219
 30
0.0
 10
150.6745483632403
 20
-292.1691339270219
 30
0.0
 10
150.6745483632403
 20
-292.1691339270219
 30
0.0
 10
158.1657593007403
 20
-292.1691339270219
 30
0.0
 10
163.6296264882403
 20
-295.0719659582719
 30
0.0
 10
166.9167358632403
 20
-300.7975518957719
 30
0.0
 10
168.1071655507403
 20
-303.1398370520219
 30
0.0
 10
168.6921264882403
 20
-305.8263604895219
 30
0.0
 10
168.6911499257403
 20
-308.8537042395219
 30
0.0
  0
HATCH
  5
81
330
79
100
AcDbEntity
  8
Layer 1
 62
    18
420
        0
440
 33554687
100
AcDbHatch
 10
0.0
 20
0.0
 30
0.0
210
0.0
220
0.0
230
1.0
  2
SOLID
 70
     1
 71
     1
 91
        1
 92
        1
 93
        1
 72
     4
 94
        3
 73
     0
 74
     0
 95
       80
 96
       76
 40
0.0
 40
0.0
 40
0.0
 40
0.0
 40
1.0
 40
1.0
 40
1.0
 40
2.0
 40
2.0
 40
2.0
 40
3.0
 40
3.0
 40
3.0
 40
4.0
 40
4.0
 40
4.0
 40
5.0
 40
5.0
 40
5.0
 40
6.0
 40
6.0
 40
6.0
 40
7.0
 40
7.0
 40
7.0
 40
8.0
 40
8.0
 40
8.0
 40
9.0
 40
9.0
 40
9.0
 40
10.0
 40
10.0
 40
10.0
 40
11.0
 40
11.0
 40
11.0
 40
12.0
 40
12.0
 40
12.0
 40
13.0
 40
13.0
 40
13.0
 40
14.0
 40
14.0
 40
14.0
 40
15.0
 40
15.0
 40
15.0
 40
16.0
 40
16.0
 40
16.0
 40
17.0
 40
17.0
 40
17.0
 40
18.0
 40
18.0
 40
18.0
 40
19.0
 40
19.0
 40
19.0
 40
20.0
 40
20.0
 40
20.0
 40
21.0
 40
21.0
 40
21.0
 40
22.0
 40
22.0
 40
22.0
 40
23.0
 40
23.0
 40
23.0
 40
24.0
 40
24.0
 40
24.0
 40
25.0
 40
25.0
 40
25.0
 40
25.0
 10
168.6911499257403
 20
-308.8537042395219
 10
168.6911499257403
 20
-308.8537042395219
 10
168.6911499257403
 20
-332.6964776770219
 10
168.6911499257403
 20
-332.6964776770219
 10
168.6911499257403
 20
-332.6964776770219
 10
167.9138061757403
 20
-333.8585870520219
 10
167.9138061757403
 20
-333.8585870520219
 10
167.9138061757403
 20
-333.8585870520219
 10
158.7223999257403
 20
-333.8585870520219
 10
158.7223999257403
 20
-333.8585870520219
 10
158.7223999257403
 20
-333.8585870520219
 10
157.9450561757403
 20
-332.6964776770219
 10
157.9450561757403
 20
-332.6964776770219
 10
157.9450561757403
 20
-332.6964776770219
 10
157.9450561757403
 20
-308.7716729895219
 10
157.9450561757403
 20
-308.7716729895219
 10
157.9450561757403
 20
-306.0866143957719
 10
156.9304077382403
 20
-304.4508722082719
 10
154.7497436757403
 20
-303.6251886145219
 10
153.7116577382403
 20
-303.1696222082719
 10
152.4196655507403
 20
-302.9542901770219
 10
150.8356811757403
 20
-302.9542901770219
 10
150.8356811757403
 20
-302.9542901770219
 10
150.1901733632403
 20
-302.9542901770219
 10
150.1901733632403
 20
-302.9542901770219
 10
146.5261108632403
 20
-302.9542901770219
 10
144.8532593007403
 20
-303.6290948645219
 10
144.0944702382403
 20
-304.1945245520219
 10
144.0944702382403
 20
-304.1945245520219
 10
143.9763061757403
 20
-304.2750909582719
 10
143.9763061757403
 20
-304.2750909582719
 10
142.6677124257403
 20
-305.0685479895219
 10
142.0300171132403
 20
-306.6056573645219
 10
142.0300171132403
 20
-308.9752862707719
 10
142.0300171132403
 20
-308.9752862707719
 10
142.0300171132403
 20
-332.8659112707719
 10
142.0300171132403
 20
-332.8659112707719
 10
142.0300171132403
 20
-332.8659112707719
 10
141.0300171132403
 20
-333.8585870520219
 10
141.0300171132403
 20
-333.8585870520219
 10
141.0300171132403
 20
-333.8585870520219
 10
132.2409546132403
 20
-333.8585870520219
 10
132.2409546132403
 20
-333.8585870520219
 10
132.2409546132403
 20
-333.8585870520219
 10
131.2438843007403
 20
-332.8620050207719
 10
131.2438843007403
 20
-332.8620050207719
 10
131.2438843007403
 20
-332.8620050207719
 10
131.2438843007403
 20
-293.3703058020219
 10
131.2438843007403
 20
-293.3703058020219
 10
131.2438843007403
 20
-293.3703058020219
 10
132.2370483632403
 20
-292.3698175207719
 10
132.2370483632403
 20
-292.3698175207719
 10
132.2370483632403
 20
-292.3698175207719
 10
141.0329468007403
 20
-292.3698175207719
 10
141.0329468007403
 20
-292.3698175207719
 10
141.0329468007403
 20
-292.3698175207719
 10
142.0300171132403
 20
-293.3673761145219
 10
142.0300171132403
 20
-293.3673761145219
 10
142.0300171132403
 20
-293.3673761145219
 10
142.0300171132403
 20
-293.8390558020219
 10
142.0300171132403
 20
-293.8390558020219
 10
143.0768921132403
 20
-293.4152276770219
 10
144.2614624257403
 20
-293.0104425207719
 10
145.5739624257403
 20
-292.6320245520219
 10
146.9157593007403
 20
-292.3180597082719
 10
148.4841186757403
 20
-292.1691339270219
 10
150.3112671132403
 20
-292.1691339270219
 10
150.3112671132403
 20
-292.1691339270219
 10
150.6745483632403
 20
-292.1691339270219
 10
150.6745483632403
 20
-292.1691339270219
 10
158.1657593007403
 20
-292.1691339270219
 10
163.6296264882403
 20
-295.0719659582719
 10
166.9167358632403
 20
-300.7975518957719
 10
168.1071655507403
 20
-303.1398370520219
 10
168.6921264882403
 20
-305.8263604895219
 10
168.6911499257403
 20
-308.8537042395219
 97
        0
 97
        1
330
80
 75
     2
 76
     1
 98
        1
 10
0.0
 20
0.0
450
        0
451
        0
460
0.0
461
0.0
452
        0
462
0.0
453
        0
470

  0
SPLINE
  5
82
330
79
100
AcDbEntity
  8
Layer 1
100
AcDbSpline
210
0.0
220
0.0
230
1.0
 70
    11
 71
     3
 72
    47
 73
    43
 74
     0
 42
0.0000000001
 43
0.0000000001
 40
0.0
 40
0.0
 40
0.0
 40
0.0
 40
1.0
 40
1.0
 40
1.0
 40
2.0
 40
2.0
 40
2.0
 40
3.0
 40
3.0
 40
3.0
 40
4.0
 40
4.0
 40
4.0
 40
5.0
 40
5.0
 40
5.0
 40
6.0
 40
6.0
 40
6.0
 40
7.0
 40
7.0
 40
7.0
 40
8.0
 40
8.0
 40
8.0
 40
9.0
 40
9.0
 40
9.0
 40
10.0
 40
10.0
 40
10.0
 40
11.0
 40
11.0
 40
11.0
 40
12.0
 40
12.0
 40
12.0
 40
13.0
 40
13.0
 40
13.0
 40
14.0
 40
14.0
 40
14.0
 40
14.0
 10
214.5436889882403
 20
-292.1681573645219
 30
0.0
 10
214.5436889882403
 20
-292.1681573645219
 30
0.0
 10
188.6696655507403
 20
-351.2697198645219
 30
0.0
 10
188.6696655507403
 20
-351.2697198645219
 30
0.0
 10
188.6696655507403
 20
-351.2697198645219
 30
0.0
 10
178.5632202382403
 20
-351.2697198645219
 30
0.0
 10
178.5632202382403
 20
-351.2697198645219
 30
0.0
 10
178.5632202382403
 20
-351.2697198645219
 30
0.0
 10
177.3854858632403
 20
-350.1193292395219
 30
0.0
 10
177.3854858632403
 20
-350.1193292395219
 30
0.0
 10
177.3854858632403
 20
-350.1193292395219
 30
0.0
 10
177.7643921132403
 20
-349.1295831457719
 30
0.0
 10
177.7643921132403
 20
-349.1295831457719
 30
0.0
 10
177.7643921132403
 20
-349.1295831457719
 30
0.0
 10
185.1745483632403
 20
-332.3605401770219
 30
0.0
 10
185.1745483632403
 20
-332.3605401770219
 30
0.0
 10
185.1745483632403
 20
-332.3605401770219
 30
0.0
 10
177.5202514882403
 20
-314.8649347082719
 30
0.0
 10
177.5202514882403
 20
-314.8649347082719
 30
0.0
 10
177.5202514882403
 20
-314.8649347082719
 30
0.0
 10
167.5729858632403
 20
-292.1681573645219
 30
0.0
 10
167.5729858632403
 20
-292.1681573645219
 30
0.0
 10
167.5729858632403
 20
-292.1681573645219
 30
0.0
 10
179.3864624257403
 20
-292.1681573645219
 30
0.0
 10
179.3864624257403
 20
-292.1681573645219
 30
0.0
 10
179.3864624257403
 20
-292.1681573645219
 30
0.0
 10
179.8249389882403
 20
-292.6056573645219
 30
0.0
 10
179.8249389882403
 20
-292.6056573645219
 30
0.0
 10
180.0612671132403
 20
-292.8419854895219
 30
0.0
 10
180.1462280507403
 20
-293.0324151770219
 30
0.0
 10
180.5085327382403
 20
-293.8888604895219
 30
0.0
 10
180.5085327382403
 20
-293.8888604895219
 30
0.0
 10
191.0563843007403
 20
-318.7921808020219
 30
0.0
 10
191.0563843007403
 20
-318.7921808020219
 30
0.0
 10
191.1667358632403
 20
-318.5314386145219
 30
0.0
 10
191.2848999257403
 20
-318.2550714270219
 30
0.0
 10
191.4089233632403
 20
-317.9621026770219
 30
0.0
 10
191.4089233632403
 20
-317.9621026770219
 30
0.0
 10
202.7585327382403
 20
-292.1681573645219
 30
0.0
 10
202.7585327382403
 20
-292.1681573645219
 30
0.0
 10
202.7585327382403
 20
-292.1681573645219
 30
0.0
 10
214.5436889882403
 20
-292.1681573645219
 30
0.0
 10
214.5436889882403
 20
-292.1681573645219
 30
0.0
  0
HATCH
  5
83
330
79
100
AcDbEntity
  8
Layer 1
 62
    18
420
        0
440
 33554687
100
AcDbHatch
 10
0.0
 20
0.0
 30
0.0
210
0.0
220
0.0
230
1.0
  2
SOLID
 70
     1
 71
     1
 91
        1
 92
        1
 93
        1
 72
     4
 94
        3
 73
     0
 74
     0
 95
       47
 96
       43
 40
0.0
 40
0.0
 40
0.0
 40
0.0
 40
1.0
 40
1.0
 40
1.0
 40
2.0
 40
2.0
 40
2.0
 40
3.0
 40
3.0
 40
3.0
 40
4.0
 40
4.0
 40
4.0
 40
5.0
 40
5.0
 40
5.0
 40
6.0
 40
6.0
 40
6.0
 40
7.0
 40
7.0
 40
7.0
 40
8.0
 40
8.0
 40
8.0
 40
9.0
 40
9.0
 40
9.0
 40
10.0
 40
10.0
 40
10.0
 40
11.0
 40
11.0
 40
11.0
 40
12.0
 40
12.0
 40
12.0
 40
13.0
 40
13.0
 40
13.0
 40
14.0
 40
14.0
 40
14.0
 40
14.0
 10
214.5436889882403
 20
-292.1681573645219
 10
214.5436889882403
 20
-292.1681573645219
 10
188.6696655507403
 20
-351.2697198645219
 10
188.6696655507403
 20
-351.2697198645219
 10
188.6696655507403
 20
-351.2697198645219
 10
178.5632202382403
 20
-351.2697198645219
 10
178.5632202382403
 20
-351.2697198645219
 10
178.5632202382403
 20
-351.2697198645219
 10
177.3854858632403
 20
-350.1193292395219
 10
177.3854858632403
 20
-350.1193292395219
 10
177.3854858632403
 20
-350.1193292395219
 10
177.7643921132403
 20
-349.1295831457719
 10
177.7643921132403
 20
-349.1295831457719
 10
177.7643921132403
 20
-349.1295831457719
 10
185.1745483632403
 20
-332.3605401770219
 10
185.1745483632403
 20
-332.3605401770219
 10
185.1745483632403
 20
-332.3605401770219
 10
177.5202514882403
 20
-314.8649347082719
 10
177.5202514882403
 20
-314.8649347082719
 10
177.5202514882403
 20
-314.8649347082719
 10
167.5729858632403
 20
-292.1681573645219
 10
167.5729858632403
 20
-292.1681573645219
 10
167.5729858632403
 20
-292.1681573645219
 10
179.3864624257403
 20
-292.1681573645219
 10
179.3864624257403
 20
-292.1681573645219
 10
179.3864624257403
 20
-292.1681573645219
 10
179.8249389882403
 20
-292.6056573645219
 10
179.8249389882403
 20
-292.6056573645219
 10
180.0612671132403
 20
-292.8419854895219
 10
180.1462280507403
 20
-293.0324151770219
 10
180.5085327382403
 20
-293.8888604895219
 10
180.5085327382403
 20
-293.8888604895219
 10
191.0563843007403
 20
-318.7921808020219
 10
191.0563843007403
 20
-318.7921808020219
 10
191.1667358632403
 20
-318.5314386145219
 10
191.2848999257403
 20
-318.2550714270219
 10
191.4089233632403
 20
-317.9621026770219
 10
191.4089233632403
 20
-317.9621026770219
 10
202.7585327382403
 20
-292.1681573645219
 10
202.7585327382403
 20
-292.1681573645219
 10
202.7585327382403
 20
-292.1681573645219
 10
214.5436889882403
 20
-292.1681573645219
 10
214.5436889882403
 20
-292.1681573645219
 97
        0
 97
        1
330
82
 75
     2
 76
     1
 98
        1
 10
0.0
 20
0.0
450
        0
451
        0
460
0.0
461
0.0
452
        0
462
0.0
453
        0
470

  0
ENDBLK
  5
7C
330
79
100
AcDbEntity
  8
0
100
AcDbBlockEnd
  0
ENDSEC
  0
SECTION
  2
ENTITIES
  0
INSERT
  5
7A
330
70
100
AcDbEntity
  8
Layer 1
100
AcDbBlockReference
  2
Block_0
 10
0.0
 20
0.0
 30
0.0
  0
SPLINE
  5
84
330
70
100
AcDbEntity
  8
Layer 1
100
AcDbSpline
210
0.0
220
0.0
230
1.0
 70
    11
 71
     3
 72
    17
 73
    13
 74
     0
 42
0.0000000001
 43
0.0000000001
 40
0.0
 40
0.0
 40
0.0
 40
0.0
 40
1.0
 40
1.0
 40
1.0
 40
2.0
 40
2.0
 40
2.0
 40
3.0
 40
3.0
 40
3.0
 40
4.0
 40
4.0
 40
4.0
 40
4.0
 10
219.8200073242187
 20
-356.3699951171875
 30
0.0
 10
219.8200073242187
 20
-356.3699951171875
 30
0.0
 10
67.1400146484375
 20
-356.3699951171875
 30
0.0
 10
67.1400146484375
 20
-356.3699951171875
 30
0.0
 10
67.1400146484375
 20
-356.3699951171875
 30
0.0
 10
67.1400146484375
 20
-203.6900024414062
 30
0.0
 10
67.1400146484375
 20
-203.6900024414062
 30
0.0
 10
67.1400146484375
 20
-203.6900024414062
 30
0.0
 10
219.8200073242187
 20
-203.6900024414062
 30
0.0
 10
219.8200073242187
 20
-203.6900024414062
 30
0.0
 10
219.8200073242187
 20
-203.6900024414062
 30
0.0
 10
219.8200073242187
 20
-356.3699951171875
 30
0.0
 10
219.8200073242187
 20
-356.3699951171875
 30
0.0
  0
SPLINE
  5
85
330
70
100
AcDbEntity
  8
Layer 1
100
AcDbSpline
210
0.0
220
0.0
230
1.0
 70
     9
 71
     3
 72
   245
 73
   241
 74
     0
 42
0.0000000001
 43
0.0000000001
 40
0.0
 40
0.0
 40
0.0
 40
0.0
 40
1.0
 40
1.0
 40
1.0
 40
2.0
 40
2.0
 40
2.0
 40
3.0
 40
3.0
 40
3.0
 40
4.0
 40
4.0
 40
4.0
 40
5.0
 40
5.0
 40
5.0
 40
6.0
 40
6.0
 40
6.0
 40
7.0
 40
7.0
 40
7.0
 40
8.0
 40
8.0
 40
8.0
 40
9.0
 40
9.0
 40
9.0
 40
10.0
 40
10.0
 40
10.0
 40
11.0
 40
11.0
 40
11.0
 40
12.0
 40
12.0
 40
12.0
 40
13.0
 40
13.0
 40
13.0
 40
14.0
 40
14.0
 40
14.0
 40
15.0
 40
15.0
 40
15.0
 40
16.0
 40
16.0
 40
16.0
 40
17.0
 40
17.0
 40
17.0
 40
18.0
 40
18.0
 40
18.0
 40
19.0
 40
19.0
 40
19.0
 40
20.0
 40
20.0
 40
20.0
 40
21.0
 40
21.0
 40
21.0
 40
22.0
 40
22.0
 40
22.0
 40
23.0
 40
23.0
 40
23.0
 40
24.0
 40
24.0
 40
24.0
 40
25.0
 40
25.0
 40
25.0
 40
26.0
 40
26.0
 40
26.0
 40
27.0
 40
27.0
 40
27.0
 40
28.0
 40
28.0
 40
28.0
 40
29.0
 40
29.0
 40
29.0
 40
30.0
 40
30.0
 40
30.0
 40
31.0
 40
31.0
 40
31.0
 40
32.0
 40
32.0
 40
32.0
 40
33.0
 40
33.0
 40
33.0
 40
34.0
 40
34.0
 40
34.0
 40
35.0
 40
35.0
 40
35.0
 40
36.0
 40
36.0
 40
36.0
 40
37.0
 40
37.0
 40
37.0
 40
38.0
 40
38.0
 40
38.0
 40
39.0
 40
39.0
 40
39.0
 40
40.0
 40
40.0
 40
40.0
 40
41.0
 40
41.0
 40
41.0
 40
42.0
 40
42.0
 40
42.0
 40
43.0
 40
43.0
 40
43.0
 40
44.0
 40
44.0
 40
44.0
 40
45.0
 40
45.0
 40
45.0
 40
46.0
 40
46.0
 40
46.0
 40
47.0
 40
47.0
 40
47.0
 40
48.0
 40
48.0
 40
48.0
 40
49.0
 40
49.0
 40
49.0
 40
50.0
 40
50.0
 40
50.0
 40
51.0
 40
51.0
 40
51.0
 40
52.0
 40
52.0
 40
52.0
 40
53.0
 40
53.0
 40
53.0
 40
54.0
 40
54.0
 40
54.0
 40
55.0
 40
55.0
 40
55.0
 40
56.0
 40
56.0
 40
56.0
 40
57.0
 40
57.0
 40
57.0
 40
58.0
 40
58.0
 40
58.0
 40
59.0
 40
59.0
 40
59.0
 40
60.0
 40
60.0
 40
60.0
 40
61.0
 40
61.0
 40
61.0
 40
62.0
 40
62.0
 40
62.0
 40
63.0
 40
63.0
 40
63.0
 40
64.0
 40
64.0
 40
64.0
 40
65.0
 40
65.0
 40
65.0
 40
66.0
 40
66.0
 40
66.0
 40
67.0
 40
67.0
 40
67.0
 40
68.0
 40
68.0
 40
68.0
 40
69.0
 40
69.0
 40
69.0
 40
70.0
 40
70.0
 40
70.0
 40
71.0
 40
71.0
 40
71.0
 40
72.0
 40
72.0
 40
72.0
 40
73.0
 40
73.0
 40
73.0
 40
74.0
 40
74.0
 40
74.0
 40
75.0
 40
75.0
 40
75.0
 40
76.0
 40
76.0
 40
76.0
 40
77.0
 40
77.0
 40
77.0
 40
78.0
 40
78.0
 40
78.0
 40
79.0
 40
79.0
 40
79.0
 40
80.0
 40
80.0
 40
80.0
 40
80.0
 10
263.8599853515625
 20
-241.469970703125
 30
0.0
 10
266.6799926757812
 20
-241.469970703125
 30
0.0
 10
268.969970703125
 20
-239.1900024414062
 30
0.0
 10
268.969970703125
 20
-236.3699951171875
 30
0.0
 10
268.969970703125
 20
-236.3699951171875
 30
0.0
 10
268.969970703125
 20
-220.7899780273438
 30
0.0
 10
268.969970703125
 20
-220.7899780273438
 30
0.0
 10
268.969970703125
 20
-217.969970703125
 30
0.0
 10
266.6799926757812
 20
-215.6900024414063
 30
0.0
 10
263.8599853515625
 20
-215.6900024414063
 30
0.0
 10
263.8599853515625
 20
-215.6900024414063
 30
0.0
 10
245.72998046875
 20
-215.6900024414063
 30
0.0
 10
245.72998046875
 20
-215.6900024414063
 30
0.0
 10
245.72998046875
 20
-215.6900024414063
 30
0.0
 10
245.72998046875
 20
-203.75
 30
0.0
 10
245.72998046875
 20
-203.75
 30
0.0
 10
245.72998046875
 20
-189.0899658203125
 30
0.0
 10
233.8499755859375
 20
-177.2000122070312
 30
0.0
 10
219.1799926757813
 20
-177.2000122070312
 30
0.0
 10
219.1799926757813
 20
-177.2000122070312
 30
0.0
 10
207.8200073242188
 20
-177.2000122070312
 30
0.0
 10
207.8200073242188
 20
-177.2000122070312
 30
0.0
 10
207.8200073242188
 20
-177.2000122070312
 30
0.0
 10
207.8200073242188
 20
-157.0299682617187
 30
0.0
 10
207.8200073242188
 20
-157.0299682617187
 30
0.0
 10
207.8200073242188
 20
-154.2099609375
 30
0.0
 10
205.530029296875
 20
-151.9199829101562
 30
0.0
 10
202.7100219726563
 20
-151.9199829101562
 30
0.0
 10
202.7100219726563
 20
-151.9199829101562
 30
0.0
 10
187.1400146484375
 20
-151.9199829101562
 30
0.0
 10
187.1400146484375
 20
-151.9199829101562
 30
0.0
 10
184.3200073242187
 20
-151.9199829101562
 30
0.0
 10
182.030029296875
 20
-154.2099609375
 30
0.0
 10
182.030029296875
 20
-157.0299682617187
 30
0.0
 10
182.030029296875
 20
-157.0299682617187
 30
0.0
 10
182.030029296875
 20
-177.2000122070312
 30
0.0
 10
182.030029296875
 20
-177.2000122070312
 30
0.0
 10
182.030029296875
 20
-177.2000122070312
 30
0.0
 10
156.3699951171875
 20
-177.2000122070312
 30
0.0
 10
156.3699951171875
 20
-177.2000122070312
 30
0.0
 10
156.3699951171875
 20
-177.2000122070312
 30
0.0
 10
156.3699951171875
 20
-157.0299682617187
 30
0.0
 10
156.3699951171875
 20
-157.0299682617187
 30
0.0
 10
156.3699951171875
 20
-154.2099609375
 30
0.0
 10
154.0900268554687
 20
-151.9199829101562
 30
0.0
 10
151.27001953125
 20
-151.9199829101562
 30
0.0
 10
151.27001953125
 20
-151.9199829101562
 30
0.0
 10
135.6900024414062
 20
-151.9199829101562
 30
0.0
 10
135.6900024414062
 20
-151.9199829101562
 30
0.0
 10
132.8699951171875
 20
-151.9199829101562
 30
0.0
 10
130.5900268554687
 20
-154.2099609375
 30
0.0
 10
130.5900268554687
 20
-157.0299682617187
 30
0.0
 10
130.5900268554687
 20
-157.0299682617187
 30
0.0
 10
130.5900268554687
 20
-177.2000122070312
 30
0.0
 10
130.5900268554687
 20
-177.2000122070312
 30
0.0
 10
130.5900268554687
 20
-177.2000122070312
 30
0.0
 10
105.8200073242187
 20
-177.2000122070312
 30
0.0
 10
105.8200073242187
 20
-177.2000122070312
 30
0.0
 10
105.8200073242187
 20
-177.2000122070312
 30
0.0
 10
105.8200073242187
 20
-157.0299682617187
 30
0.0
 10
105.8200073242187
 20
-157.0299682617187
 30
0.0
 10
105.8200073242187
 20
-154.2099609375
 30
0.0
 10
103.530029296875
 20
-151.9199829101562
 30
0.0
 10
100.7100219726562
 20
-151.9199829101562
 30
0.0
 10
100.7100219726562
 20
-151.9199829101562
 30
0.0
 10
85.14001464843749
 20
-151.9199829101562
 30
0.0
 10
85.14001464843749
 20
-151.9199829101562
 30
0.0
 10
82.32000732421875
 20
-151.9199829101562
 30
0.0
 10
80.030029296875
 20
-154.2099609375
 30
0.0
 10
80.030029296875
 20
-157.0299682617187
 30
0.0
 10
80.030029296875
 20
-157.0299682617187
 30
0.0
 10
80.030029296875
 20
-177.2000122070312
 30
0.0
 10
80.030029296875
 20
-177.2000122070312
 30
0.0
 10
80.030029296875
 20
-177.2000122070312
 30
0.0
 10
67.780029296875
 20
-177.2000122070312
 30
0.0
 10
67.780029296875
 20
-177.2000122070312
 30
0.0
 10
53.1099853515625
 20
-177.2000122070312
 30
0.0
 10
41.219970703125
 20
-189.0899658203125
 30
0.0
 10
41.219970703125
 20
-203.75
 30
0.0
 10
41.219970703125
 20
-203.75
 30
0.0
 10
41.219970703125
 20
-215.6900024414063
 30
0.0
 10
41.219970703125
 20
-215.6900024414063
 30
0.0
 10
41.219970703125
 20
-215.6900024414063
 30
0.0
 10
23.989990234375
 20
-215.6900024414063
 30
0.0
 10
23.989990234375
 20
-215.6900024414063
 30
0.0
 10
21.16998291015625
 20
-215.6900024414063
 30
0.0
 10
18.8800048828125
 20
-217.969970703125
 30
0.0
 10
18.8800048828125
 20
-220.7899780273438
 30
0.0
 10
18.8800048828125
 20
-220.7899780273438
 30
0.0
 10
18.8800048828125
 20
-236.3699951171875
 30
0.0
 10
18.8800048828125
 20
-236.3699951171875
 30
0.0
 10
18.8800048828125
 20
-239.1900024414062
 30
0.0
 10
21.16998291015625
 20
-241.469970703125
 30
0.0
 10
23.989990234375
 20
-241.469970703125
 30
0.0
 10
23.989990234375
 20
-241.469970703125
 30
0.0
 10
41.219970703125
 20
-241.469970703125
 30
0.0
 10
41.219970703125
 20
-241.469970703125
 30
0.0
 10
41.219970703125
 20
-241.469970703125
 30
0.0
 10
41.219970703125
 20
-266.239990234375
 30
0.0
 10
41.219970703125
 20
-266.239990234375
 30
0.0
 10
41.219970703125
 20
-266.239990234375
 30
0.0
 10
23.989990234375
 20
-266.239990234375
 30
0.0
 10
23.989990234375
 20
-266.239990234375
 30
0.0
 10
21.16998291015625
 20
-266.239990234375
 30
0.0
 10
18.8800048828125
 20
-268.5299682617188
 30
0.0
 10
18.8800048828125
 20
-271.3499755859375
 30
0.0
 10
18.8800048828125
 20
-271.3499755859375
 30
0.0
 10
18.8800048828125
 20
-286.9199829101562
 30
0.0
 10
18.8800048828125
 20
-286.9199829101562
 30
0.0
 10
18.8800048828125
 20
-289.739990234375
 30
0.0
 10
21.16998291015625
 20
-292.0299682617187
 30
0.0
 10
23.989990234375
 20
-292.0299682617187
 30
0.0
 10
23.989990234375
 20
-292.0299682617187
 30
0.0
 10
41.219970703125
 20
-292.0299682617187
 30
0.0
 10
41.219970703125
 20
-292.0299682617187
 30
0.0
 10
41.219970703125
 20
-292.0299682617187
 30
0.0
 10
41.219970703125
 20
-317.6900024414063
 30
0.0
 10
41.219970703125
 20
-317.6900024414063
 30
0.0
 10
41.219970703125
 20
-317.6900024414063
 30
0.0
 10
23.989990234375
 20
-317.6900024414063
 30
0.0
 10
23.989990234375
 20
-317.6900024414063
 30
0.0
 10
21.16998291015625
 20
-317.6900024414063
 30
0.0
 10
18.8800048828125
 20
-319.969970703125
 30
0.0
 10
18.8800048828125
 20
-322.7899780273438
 30
0.0
 10
18.8800048828125
 20
-322.7899780273438
 30
0.0
 10
18.8800048828125
 20
-338.3699951171875
 30
0.0
 10
18.8800048828125
 20
-338.3699951171875
 30
0.0
 10
18.8800048828125
 20
-341.1900024414062
 30
0.0
 10
21.16998291015625
 20
-343.469970703125
 30
0.0
 10
23.989990234375
 20
-343.469970703125
 30
0.0
 10
23.989990234375
 20
-343.469970703125
 30
0.0
 10
41.219970703125
 20
-343.469970703125
 30
0.0
 10
41.219970703125
 20
-343.469970703125
 30
0.0
 10
41.219970703125
 20
-343.469970703125
 30
0.0
 10
41.219970703125
 20
-355.1499633789063
 30
0.0
 10
41.219970703125
 20
-355.1499633789063
 30
0.0
 10
41.219970703125
 20
-369.8200073242187
 30
0.0
 10
53.1099853515625
 20
-381.7099609375
 30
0.0
 10
67.780029296875
 20
-381.7099609375
 30
0.0
 10
67.780029296875
 20
-381.7099609375
 30
0.0
 10
80.030029296875
 20
-381.7099609375
 30
0.0
 10
80.030029296875
 20
-381.7099609375
 30
0.0
 10
80.030029296875
 20
-381.7099609375
 30
0.0
 10
80.030029296875
 20
-402.1300048828124
 30
0.0
 10
80.030029296875
 20
-402.1300048828124
 30
0.0
 10
80.030029296875
 20
-404.9500122070312
 30
0.0
 10
82.32000732421875
 20
-407.2399902343749
 30
0.0
 10
85.14001464843749
 20
-407.2399902343749
 30
0.0
 10
85.14001464843749
 20
-407.2399902343749
 30
0.0
 10
100.7100219726562
 20
-407.2399902343749
 30
0.0
 10
100.7100219726562
 20
-407.2399902343749
 30
0.0
 10
103.530029296875
 20
-407.2399902343749
 30
0.0
 10
105.8200073242187
 20
-404.9500122070312
 30
0.0
 10
105.8200073242187
 20
-402.1300048828124
 30
0.0
 10
105.8200073242187
 20
-402.1300048828124
 30
0.0
 10
105.8200073242187
 20
-381.7099609375
 30
0.0
 10
105.8200073242187
 20
-381.7099609375
 30
0.0
 10
105.8200073242187
 20
-381.7099609375
 30
0.0
 10
131.47998046875
 20
-381.7099609375
 30
0.0
 10
131.47998046875
 20
-381.7099609375
 30
0.0
 10
131.47998046875
 20
-381.7099609375
 30
0.0
 10
131.47998046875
 20
-402.1300048828124
 30
0.0
 10
131.47998046875
 20
-402.1300048828124
 30
0.0
 10
131.47998046875
 20
-404.9500122070312
 30
0.0
 10
133.77001953125
 20
-407.2399902343749
 30
0.0
 10
136.5900268554687
 20
-407.2399902343749
 30
0.0
 10
136.5900268554687
 20
-407.2399902343749
 30
0.0
 10
152.1599731445312
 20
-407.2399902343749
 30
0.0
 10
152.1599731445312
 20
-407.2399902343749
 30
0.0
 10
154.97998046875
 20
-407.2399902343749
 30
0.0
 10
157.27001953125
 20
-404.9500122070312
 30
0.0
 10
157.27001953125
 20
-402.1300048828124
 30
0.0
 10
157.27001953125
 20
-402.1300048828124
 30
0.0
 10
157.27001953125
 20
-381.7099609375
 30
0.0
 10
157.27001953125
 20
-381.7099609375
 30
0.0
 10
157.27001953125
 20
-381.7099609375
 30
0.0
 10
182.030029296875
 20
-381.7099609375
 30
0.0
 10
182.030029296875
 20
-381.7099609375
 30
0.0
 10
182.030029296875
 20
-381.7099609375
 30
0.0
 10
182.030029296875
 20
-402.1300048828124
 30
0.0
 10
182.030029296875
 20
-402.1300048828124
 30
0.0
 10
182.030029296875
 20
-404.9500122070312
 30
0.0
 10
184.3200073242187
 20
-407.2399902343749
 30
0.0
 10
187.1400146484375
 20
-407.2399902343749
 30
0.0
 10
187.1400146484375
 20
-407.2399902343749
 30
0.0
 10
202.7100219726563
 20
-407.2399902343749
 30
0.0
 10
202.7100219726563
 20
-407.2399902343749
 30
0.0
 10
205.530029296875
 20
-407.2399902343749
 30
0.0
 10
207.8200073242188
 20
-404.9500122070312
 30
0.0
 10
207.8200073242188
 20
-402.1300048828124
 30
0.0
 10
207.8200073242188
 20
-402.1300048828124
 30
0.0
 10
207.8200073242188
 20
-381.7099609375
 30
0.0
 10
207.8200073242188
 20
-381.7099609375
 30
0.0
 10
207.8200073242188
 20
-381.7099609375
 30
0.0
 10
219.1799926757813
 20
-381.7099609375
 30
0.0
 10
219.1799926757813
 20
-381.7099609375
 30
0.0
 10
233.8499755859375
 20
-381.7099609375
 30
0.0
 10
245.72998046875
 20
-369.8200073242187
 30
0.0
 10
245.72998046875
 20
-355.1499633789063
 30
0.0
 10
245.72998046875
 20
-355.1499633789063
 30
0.0
 10
245.72998046875
 20
-343.469970703125
 30
0.0
 10
245.72998046875
 20
-343.469970703125
 30
0.0
 10
245.72998046875
 20
-343.469970703125
 30
0.0
 10
263.8599853515625
 20
-343.469970703125
 30
0.0
 10
263.8599853515625
 20
-343.469970703125
 30
0.0
 10
266.6799926757812
 20
-343.469970703125
 30
0.0
 10
268.969970703125
 20
-341.1900024414062
 30
0.0
 10
268.969970703125
 20
-338.3699951171875
 30
0.0
 10
268.969970703125
 20
-338.3699951171875
 30
0.0
 10
268.969970703125
 20
-322.7899780273438
 30
0.0
 10
268.969970703125
 20
-322.7899780273438
 30
0.0
 10
268.969970703125
 20
-319.969970703125
 30
0.0
 10
266.6799926757812
 20
-317.6900024414063
 30
0.0
 10
263.8599853515625
 20
-317.6900024414063
 30
0.0
 10
263.8599853515625
 20
-317.6900024414063
 30
0.0
 10
245.72998046875
 20
-317.6900024414063
 30
0.0
 10
245.72998046875
 20
-317.6900024414063
 30
0.0
 10
245.72998046875
 20
-317.6900024414063
 30
0.0
 10
245.72998046875
 20
-292.9199829101563
 30
0.0
 10
245.72998046875
 20
-292.9199829101563
 30
0.0
 10
245.72998046875
 20
-292.9199829101563
 30
0.0
 10
263.8599853515625
 20
-292.9199829101563
 30
0.0
 10
263.8599853515625
 20
-292.9199829101563
 30
0.0
 10
266.6799926757812
 20
-292.9199829101563
 30
0.0
 10
268.969970703125
 20
-290.6300048828125
 30
0.0
 10
268.969970703125
 20
-287.8099975585937
 30
0.0
 10
268.969970703125
 20
-287.8099975585937
 30
0.0
 10
268.969970703125
 20
-272.239990234375
 30
0.0
 10
268.969970703125
 20
-272.239990234375
 30
0.0
 10
268.969970703125
 20
-269.4199829101563
 30
0.0
 10
266.6799926757812
 20
-267.1300048828125
 30
0.0
 10
263.8599853515625
 20
-267.1300048828125
 30
0.0
 10
263.8599853515625
 20
-267.1300048828125
 30
0.0
 10
245.72998046875
 20
-267.1300048828125
 30
0.0
 10
245.72998046875
 20
-267.1300048828125
 30
0.0
 10
245.72998046875
 20
-267.1300048828125
 30
0.0
 10
245.72998046875
 20
-241.469970703125
 30
0.0
 10
245.72998046875
 20
-241.469970703125
 30
0.0
 10
245.72998046875
 20
-241.469970703125
 30
0.0
 10
263.8599853515625
 20
-241.469970703125
 30
0.0
 10
263.8599853515625
 20
-241.469970703125
 30
0.0
  0
HATCH
  5
86
330
70
100
AcDbEntity
  8
Layer 1
 62
    18
420
        0
440
 33554687
100
AcDbHatch
 10
0.0
 20
0.0
 30
0.0
210
0.0
220
0.0
230
1.0
  2
SOLID
 70
     1
 71
     1
 91
        2
 92
        1
 93
        1
 72
     4
 94
        3
 73
     0
 74
     0
 95
       17
 96
       13
 40
0.0
 40
0.0
 40
0.0
 40
0.0
 40
1.0
 40
1.0
 40
1.0
 40
2.0
 40
2.0
 40
2.0
 40
3.0
 40
3.0
 40
3.0
 40
4.0
 40
4.0
 40
4.0
 40
4.0
 10
219.8200073242187
 20
-356.3699951171875
 10
219.8200073242187
 20
-356.3699951171875
 10
67.1400146484375
 20
-356.3699951171875
 10
67.1400146484375
 20
-356.3699951171875
 10
67.1400146484375
 20
-356.3699951171875
 10
67.1400146484375
 20
-203.6900024414062
 10
67.1400146484375
 20
-203.6900024414062
 10
67.1400146484375
 20
-203.6900024414062
 10
219.8200073242187
 20
-203.6900024414062
 10
219.8200073242187
 20
-203.6900024414062
 10
219.8200073242187
 20
-203.6900024414062
 10
219.8200073242187
 20
-356.3699951171875
 10
219.8200073242187
 20
-356.3699951171875
 97
        0
 97
        1
330
84
 92
        1
 93
        1
 72
     4
 94
        3
 73
     0
 74
     0
 95
      245
 96
      241
 40
0.0
 40
0.0
 40
0.0
 40
0.0
 40
1.0
 40
1.0
 40
1.0
 40
2.0
 40
2.0
 40
2.0
 40
3.0
 40
3.0
 40
3.0
 40
4.0
 40
4.0
 40
4.0
 40
5.0
 40
5.0
 40
5.0
 40
6.0
 40
6.0
 40
6.0
 40
7.0
 40
7.0
 40
7.0
 40
8.0
 40
8.0
 40
8.0
 40
9.0
 40
9.0
 40
9.0
 40
10.0
 40
10.0
 40
10.0
 40
11.0
 40
11.0
 40
11.0
 40
12.0
 40
12.0
 40
12.0
 40
13.0
 40
13.0
 40
13.0
 40
14.0
 40
14.0
 40
14.0
 40
15.0
 40
15.0
 40
15.0
 40
16.0
 40
16.0
 40
16.0
 40
17.0
 40
17.0
 40
17.0
 40
18.0
 40
18.0
 40
18.0
 40
19.0
 40
19.0
 40
19.0
 40
20.0
 40
20.0
 40
20.0
 40
21.0
 40
21.0
 40
21.0
 40
22.0
 40
22.0
 40
22.0
 40
23.0
 40
23.0
 40
23.0
 40
24.0
 40
24.0
 40
24.0
 40
25.0
 40
25.0
 40
25.0
 40
26.0
 40
26.0
 40
26.0
 40
27.0
 40
27.0
 40
27.0
 40
28.0
 40
28.0
 40
28.0
 40
29.0
 40
29.0
 40
29.0
 40
30.0
 40
30.0
 40
30.0
 40
31.0
 40
31.0
 40
31.0
 40
32.0
 40
32.0
 40
32.0
 40
33.0
 40
33.0
 40
33.0
 40
34.0
 40
34.0
 40
34.0
 40
35.0
 40
35.0
 40
35.0
 40
36.0
 40
36.0
 40
36.0
 40
37.0
 40
37.0
 40
37.0
 40
38.0
 40
38.0
 40
38.0
 40
39.0
 40
39.0
 40
39.0
 40
40.0
 40
40.0
 40
40.0
 40
41.0
 40
41.0
 40
41.0
 40
42.0
 40
42.0
 40
42.0
 40
43.0
 40
43.0
 40
43.0
 40
44.0
 40
44.0
 40
44.0
 40
45.0
 40
45.0
 40
45.0
 40
46.0
 40
46.0
 40
46.0
 40
47.0
 40
47.0
 40
47.0
 40
48.0
 40
48.0
 40
48.0
 40
49.0
 40
49.0
 40
49.0
 40
50.0
 40
50.0
 40
50.0
 40
51.0
 40
51.0
 40
51.0
 40
52.0
 40
52.0
 40
52.0
 40
53.0
 40
53.0
 40
53.0
 40
54.0
 40
54.0
 40
54.0
 40
55.0
 40
55.0
 40
55.0
 40
56.0
 40
56.0
 40
56.0
 40
57.0
 40
57.0
 40
57.0
 40
58.0
 40
58.0
 40
58.0
 40
59.0
 40
59.0
 40
59.0
 40
60.0
 40
60.0
 40
60.0
 40
61.0
 40
61.0
 40
61.0
 40
62.0
 40
62.0
 40
62.0
 40
63.0
 40
63.0
 40
63.0
 40
64.0
 40
64.0
 40
64.0
 40
65.0
 40
65.0
 40
65.0
 40
66.0
 40
66.0
 40
66.0
 40
67.0
 40
67.0
 40
67.0
 40
68.0
 40
68.0
 40
68.0
 40
69.0
 40
69.0
 40
69.0
 40
70.0
 40
70.0
 40
70.0
 40
71.0
 40
71.0
 40
71.0
 40
72.0
 40
72.0
 40
72.0
 40
73.0
 40
73.0
 40
73.0
 40
74.0
 40
74.0
 40
74.0
 40
75.0
 40
75.0
 40
75.0
 40
76.0
 40
76.0
 40
76.0
 40
77.0
 40
77.0
 40
77.0
 40
78.0
 40
78.0
 40
78.0
 40
79.0
 40
79.0
 40
79.0
 40
80.0
 40
80.0
 40
80.0
 40
80.0
 10
263.8599853515625
 20
-241.469970703125
 10
266.6799926757812
 20
-241.469970703125
 10
268.969970703125
 20
-239.1900024414062
 10
268.969970703125
 20
-236.3699951171875
 10
268.969970703125
 20
-236.3699951171875
 10
268.969970703125
 20
-220.7899780273438
 10
268.969970703125
 20
-220.7899780273438
 10
268.969970703125
 20
-217.969970703125
 10
266.6799926757812
 20
-215.6900024414063
 10
263.8599853515625
 20
-215.6900024414063
 10
263.8599853515625
 20
-215.6900024414063
 10
245.72998046875
 20
-215.6900024414063
 10
245.72998046875
 20
-215.6900024414063
 10
245.72998046875
 20
-215.6900024414063
 10
245.72998046875
 20
-203.75
 10
245.72998046875
 20
-203.75
 10
245.72998046875
 20
-189.0899658203125
 10
233.8499755859375
 20
-177.2000122070312
 10
219.1799926757813
 20
-177.2000122070312
 10
219.1799926757813
 20
-177.2000122070312
 10
207.8200073242188
 20
-177.2000122070312
 10
207.8200073242188
 20
-177.2000122070312
 10
207.8200073242188
 20
-177.2000122070312
 10
207.8200073242188
 20
-157.0299682617187
 10
207.8200073242188
 20
-157.0299682617187
 10
207.8200073242188
 20
-154.2099609375
 10
205.530029296875
 20
-151.9199829101562
 10
202.7100219726563
 20
-151.9199829101562
 10
202.7100219726563
 20
-151.9199829101562
 10
187.1400146484375
 20
-151.9199829101562
 10
187.1400146484375
 20
-151.9199829101562
 10
184.3200073242187
 20
-151.9199829101562
 10
182.030029296875
 20
-154.2099609375
 10
182.030029296875
 20
-157.0299682617187
 10
182.030029296875
 20
-157.0299682617187
 10
182.030029296875
 20
-177.2000122070312
 10
182.030029296875
 20
-177.2000122070312
 10
182.030029296875
 20
-177.2000122070312
 10
156.3699951171875
 20
-177.2000122070312
 10
156.3699951171875
 20
-177.2000122070312
 10
156.3699951171875
 20
-177.2000122070312
 10
156.3699951171875
 20
-157.0299682617187
 10
156.3699951171875
 20
-157.0299682617187
 10
156.3699951171875
 20
-154.2099609375
 10
154.0900268554687
 20
-151.9199829101562
 10
151.27001953125
 20
-151.9199829101562
 10
151.27001953125
 20
-151.9199829101562
 10
135.6900024414062
 20
-151.9199829101562
 10
135.6900024414062
 20
-151.9199829101562
 10
132.8699951171875
 20
-151.9199829101562
 10
130.5900268554687
 20
-154.2099609375
 10
130.5900268554687
 20
-157.0299682617187
 10
130.5900268554687
 20
-157.0299682617187
 10
130.5900268554687
 20
-177.2000122070312
 10
130.5900268554687
 20
-177.2000122070312
 10
130.5900268554687
 20
-177.2000122070312
 10
105.8200073242187
 20
-177.2000122070312
 10
105.8200073242187
 20
-177.2000122070312
 10
105.8200073242187
 20
-177.2000122070312
 10
105.8200073242187
 20
-157.0299682617187
 10
105.8200073242187
 20
-157.0299682617187
 10
105.8200073242187
 20
-154.2099609375
 10
103.530029296875
 20
-151.9199829101562
 10
100.7100219726562
 20
-151.9199829101562
 10
100.7100219726562
 20
-151.9199829101562
 10
85.14001464843749
 20
-151.9199829101562
 10
85.14001464843749
 20
-151.9199829101562
 10
82.32000732421875
 20
-151.9199829101562
 10
80.030029296875
 20
-154.2099609375
 10
80.030029296875
 20
-157.0299682617187
 10
80.030029296875
 20
-157.0299682617187
 10
80.030029296875
 20
-177.2000122070312
 10
80.030029296875
 20
-177.2000122070312
 10
80.030029296875
 20
-177.2000122070312
 10
67.780029296875
 20
-177.2000122070312
 10
67.780029296875
 20
-177.2000122070312
 10
53.1099853515625
 20
-177.2000122070312
 10
41.219970703125
 20
-189.0899658203125
 10
41.219970703125
 20
-203.75
 10
41.219970703125
 20
-203.75
 10
41.219970703125
 20
-215.6900024414063
 10
41.219970703125
 20
-215.6900024414063
 10
41.219970703125
 20
-215.6900024414063
 10
23.989990234375
 20
-215.6900024414063
 10
23.989990234375
 20
-215.6900024414063
 10
21.16998291015625
 20
-215.6900024414063
 10
18.8800048828125
 20
-217.969970703125
 10
18.8800048828125
 20
-220.7899780273438
 10
18.8800048828125
 20
-220.7899780273438
 10
18.8800048828125
 20
-236.3699951171875
 10
18.8800048828125
 20
-236.3699951171875
 10
18.8800048828125
 20
-239.1900024414062
 10
21.16998291015625
 20
-241.469970703125
 10
23.989990234375
 20
-241.469970703125
 10
23.989990234375
 20
-241.469970703125
 10
41.219970703125
 20
-241.469970703125
 10
41.219970703125
 20
-241.469970703125
 10
41.219970703125
 20
-241.469970703125
 10
41.219970703125
 20
-266.239990234375
 10
41.219970703125
 20
-266.239990234375
 10
41.219970703125
 20
-266.239990234375
 10
23.989990234375
 20
-266.239990234375
 10
23.989990234375
 20
-266.239990234375
 10
21.16998291015625
 20
-266.239990234375
 10
18.8800048828125
 20
-268.5299682617188
 10
18.8800048828125
 20
-271.3499755859375
 10
18.8800048828125
 20
-271.3499755859375
 10
18.8800048828125
 20
-286.9199829101562
 10
18.8800048828125
 20
-286.9199829101562
 10
18.8800048828125
 20
-289.739990234375
 10
21.16998291015625
 20
-292.0299682617187
 10
23.989990234375
 20
-292.0299682617187
 10
23.989990234375
 20
-292.0299682617187
 10
41.219970703125
 20
-292.0299682617187
 10
41.219970703125
 20
-292.0299682617187
 10
41.219970703125
 20
-292.0299682617187
 10
41.219970703125
 20
-317.6900024414063
 10
41.219970703125
 20
-317.6900024414063
 10
41.219970703125
 20
-317.6900024414063
 10
23.989990234375
 20
-317.6900024414063
 10
23.989990234375
 20
-317.6900024414063
 10
21.16998291015625
 20
-317.6900024414063
 10
18.8800048828125
 20
-319.969970703125
 10
18.8800048828125
 20
-322.7899780273438
 10
18.8800048828125
 20
-322.7899780273438
 10
18.8800048828125
 20
-338.3699951171875
 10
18.8800048828125
 20
-338.3699951171875
 10
18.8800048828125
 20
-341.1900024414062
 10
21.16998291015625
 20
-343.469970703125
 10
23.989990234375
 20
-343.469970703125
 10
23.989990234375
 20
-343.469970703125
 10
41.219970703125
 20
-343.469970703125
 10
41.219970703125
 20
-343.469970703125
 10
41.219970703125
 20
-343.469970703125
 10
41.219970703125
 20
-355.1499633789063
 10
41.219970703125
 20
-355.1499633789063
 10
41.219970703125
 20
-369.8200073242187
 10
53.1099853515625
 20
-381.7099609375
 10
67.780029296875
 20
-381.7099609375
 10
67.780029296875
 20
-381.7099609375
 10
80.030029296875
 20
-381.7099609375
 10
80.030029296875
 20
-381.7099609375
 10
80.030029296875
 20
-381.7099609375
 10
80.030029296875
 20
-402.1300048828124
 10
80.030029296875
 20
-402.1300048828124
 10
80.030029296875
 20
-404.9500122070312
 10
82.32000732421875
 20
-407.2399902343749
 10
85.14001464843749
 20
-407.2399902343749
 10
85.14001464843749
 20
-407.2399902343749
 10
100.7100219726562
 20
-407.2399902343749
 10
100.7100219726562
 20
-407.2399902343749
 10
103.530029296875
 20
-407.2399902343749
 10
105.8200073242187
 20
-404.9500122070312
 10
105.8200073242187
 20
-402.1300048828124
 10
105.8200073242187
 20
-402.1300048828124
 10
105.8200073242187
 20
-381.7099609375
 10
105.8200073242187
 20
-381.7099609375
 10
105.8200073242187
 20
-381.7099609375
 10
131.47998046875
 20
-381.7099609375
 10
131.47998046875
 20
-381.7099609375
 10
131.47998046875
 20
-381.7099609375
 10
131.47998046875
 20
-402.1300048828124
 10
131.47998046875
 20
-402.1300048828124
 10
131.47998046875
 20
-404.9500122070312
 10
133.77001953125
 20
-407.2399902343749
 10
136.5900268554687
 20
-407.2399902343749
 10
136.5900268554687
 20
-407.2399902343749
 10
152.1599731445312
 20
-407.2399902343749
 10
152.1599731445312
 20
-407.2399902343749
 10
154.97998046875
 20
-407.2399902343749
 10
157.27001953125
 20
-404.9500122070312
 10
157.27001953125
 20
-402.1300048828124
 10
157.27001953125
 20
-402.1300048828124
 10
157.27001953125
 20
-381.7099609375
 10
157.27001953125
 20
-381.7099609375
 10
157.27001953125
 20
-381.7099609375
 10
182.030029296875
 20
-381.7099609375
 10
182.030029296875
 20
-381.7099609375
 10
182.030029296875
 20
-381.7099609375
 10
182.030029296875
 20
-402.1300048828124
 10
182.030029296875
 20
-402.1300048828124
 10
182.030029296875
 20
-404.9500122070312
 10
184.3200073242187
 20
-407.2399902343749
 10
187.1400146484375
 20
-407.2399902343749
 10
187.1400146484375
 20
-407.2399902343749
 10
202.7100219726563
 20
-407.2399902343749
 10
202.7100219726563
 20
-407.2399902343749
 10
205.530029296875
 20
-407.2399902343749
 10
207.8200073242188
 20
-404.9500122070312
 10
207.8200073242188
 20
-402.1300048828124
 10
207.8200073242188
 20
-402.1300048828124
 10
207.8200073242188
 20
-381.7099609375
 10
207.8200073242188
 20
-381.7099609375
 10
207.8200073242188
 20
-381.7099609375
 10
219.1799926757813
 20
-381.7099609375
 10
219.1799926757813
 20
-381.7099609375
 10
233.8499755859375
 20
-381.7099609375
 10
245.72998046875
 20
-369.8200073242187
 10
245.72998046875
 20
-355.1499633789063
 10
245.72998046875
 20
-355.1499633789063
 10
245.72998046875
 20
-343.469970703125
 10
245.72998046875
 20
-343.469970703125
 10
245.72998046875
 20
-343.469970703125
 10
263.8599853515625
 20
-343.469970703125
 10
263.8599853515625
 20
-343.469970703125
 10
266.6799926757812
 20
-343.469970703125
 10
268.969970703125
 20
-341.1900024414062
 10
268.969970703125
 20
-338.3699951171875
 10
268.969970703125
 20
-338.3699951171875
 10
268.969970703125
 20
-322.7899780273438
 10
268.969970703125
 20
-322.7899780273438
 10
268.969970703125
 20
-319.969970703125
 10
266.6799926757812
 20
-317.6900024414063
 10
263.8599853515625
 20
-317.6900024414063
 10
263.8599853515625
 20
-317.6900024414063
 10
245.72998046875
 20
-317.6900024414063
 10
245.72998046875
 20
-317.6900024414063
 10
245.72998046875
 20
-317.6900024414063
 10
245.72998046875
 20
-292.9199829101563
 10
245.72998046875
 20
-292.9199829101563
 10
245.72998046875
 20
-292.9199829101563
 10
263.8599853515625
 20
-292.9199829101563
 10
263.8599853515625
 20
-292.9199829101563
 10
266.6799926757812
 20
-292.9199829101563
 10
268.969970703125
 20
-290.6300048828125
 10
268.969970703125
 20
-287.8099975585937
 10
268.969970703125
 20
-287.8099975585937
 10
268.969970703125
 20
-272.239990234375
 10
268.969970703125
 20
-272.239990234375
 10
268.969970703125
 20
-269.4199829101563
 10
266.6799926757812
 20
-267.1300048828125
 10
263.8599853515625
 20
-267.1300048828125
 10
263.8599853515625
 20
-267.1300048828125
 10
245.72998046875
 20
-267.1300048828125
 10
245.72998046875
 20
-267.1300048828125
 10
245.72998046875
 20
-267.1300048828125
 10
245.72998046875
 20
-241.469970703125
 10
245.72998046875
 20
-241.469970703125
 10
245.72998046875
 20
-241.469970703125
 10
263.8599853515625
 20
-241.469970703125
 10
263.8599853515625
 20
-241.469970703125
 97
        0
 97
        1
330
85
 75
     2
 76
     1
 98
        1
 10
0.0
 20
0.0
450
        0
451
        0
460
0.0
461
0.0
452
        0
462
0.0
453
        0
470

  0
SPLINE
  5
87
330
70
100
AcDbEntity
  8
Layer 1
100
AcDbSpline
210
0.0
220
0.0
230
1.0
 70
    11
 71
     3
 72
   107
 73
   103
 74
     0
 42
0.0000000001
 43
0.0000000001
 40
0.0
 40
0.0
 40
0.0
 40
0.0
 40
1.0
 40
1.0
 40
1.0
 40
2.0
 40
2.0
 40
2.0
 40
3.0
 40
3.0
 40
3.0
 40
4.0
 40
4.0
 40
4.0
 40
5.0
 40
5.0
 40
5.0
 40
6.0
 40
6.0
 40
6.0
 40
7.0
 40
7.0
 40
7.0
 40
8.0
 40
8.0
 40
8.0
 40
9.0
 40
9.0
 40
9.0
 40
10.0
 40
10.0
 40
10.0
 40
11.0
 40
11.0
 40
11.0
 40
12.0
 40
12.0
 40
12.0
 40
13.0
 40
13.0
 40
13.0
 40
14.0
 40
14.0
 40
14.0
 40
15.0
 40
15.0
 40
15.0
 40
16.0
 40
16.0
 40
16.0
 40
17.0
 40
17.0
 40
17.0
 40
18.0
 40
18.0
 40
18.0
 40
19.0
 40
19.0
 40
19.0
 40
20.0
 40
20.0
 40
20.0
 40
21.0
 40
21.0
 40
21.0
 40
22.0
 40
22.0
 40
22.0
 40
23.0
 40
23.0
 40
23.0
 40
24.0
 40
24.0
 40
24.0
 40
25.0
 40
25.0
 40
25.0
 40
26.0
 40
26.0
 40
26.0
 40
27.0
 40
27.0
 40
27.0
 40
28.0
 40
28.0
 40
28.0
 40
29.0
 40
29.0
 40
29.0
 40
30.0
 40
30.0
 40
30.0
 40
31.0
 40
31.0
 40
31.0
 40
32.0
 40
32.0
 40
32.0
 40
33.0
 40
33.0
 40
33.0
 40
34.0
 40
34.0
 40
34.0
 40
34.0
 10
101.6799926757812
 20
-331.47998046875
 30
0.0
 10
101.6799926757812
 20
-331.47998046875
 30
0.0
 10
100.3400268554687
 20
-332.0399780273437
 30
0.0
 10
100.3400268554687
 20
-332.0399780273437
 30
0.0
 10
99.65997314453126
 20
-332.3299560546875
 30
0.0
 10
98.57000732421875
 20
-332.6900024414062
 30
0.0
 10
97.030029296875
 20
-333.1499633789062
 30
0.0
 10
95.15997314453125
 20
-333.6199951171875
 30
0.0
 10
93.52001953125
 20
-333.8599853515625
 30
0.0
 10
92.08001708984374
 20
-333.8599853515625
 30
0.0
 10
92.08001708984374
 20
-333.8599853515625
 30
0.0
 10
92.0
 20
-333.8599853515625
 30
0.0
 10
92.0
 20
-333.8599853515625
 30
0.0
 10
89.1400146484375
 20
-333.8599853515625
 30
0.0
 10
86.42999267578124
 20
-332.97998046875
 30
0.0
 10
83.95001220703125
 20
-331.239990234375
 30
0.0
 10
83.49999999999999
 20
-330.9199829101562
 30
0.0
 10
82.96002197265625
 20
-330.4599609375
 30
0.0
 10
82.28997802734374
 20
-329.8099975585937
 30
0.0
 10
82.28997802734374
 20
-329.8099975585937
 30
0.0
 10
82.13000488281251
 20
-329.6400146484375
 30
0.0
 10
82.13000488281251
 20
-329.6400146484375
 30
0.0
 10
82.13000488281251
 20
-329.6400146484375
 30
0.0
 10
81.44000244140626
 20
-328.75
 30
0.0
 10
81.44000244140626
 20
-328.75
 30
0.0
 10
80.94000244140625
 20
-328.0899658203125
 30
0.0
 10
80.53997802734375
 20
-327.4299926757813
 30
0.0
 10
80.260009765625
 20
-326.7899780273438
 30
0.0
 10
79.44000244140625
 20
-324.9500122070312
 30
0.0
 10
79.030029296875
 20
-323.0899658203125
 30
0.0
 10
79.030029296875
 20
-321.260009765625
 30
0.0
 10
79.030029296875
 20
-321.260009765625
 30
0.0
 10
79.030029296875
 20
-302.8599853515625
 30
0.0
 10
79.030029296875
 20
-302.8599853515625
 30
0.0
 10
79.030029296875
 20
-302.8599853515625
 30
0.0
 10
72.6199951171875
 20
-302.8599853515625
 30
0.0
 10
72.6199951171875
 20
-302.8599853515625
 30
0.0
 10
72.239990234375
 20
-302.8599853515625
 30
0.0
 10
71.91998291015625
 20
-302.5399780273438
 30
0.0
 10
71.91998291015625
 20
-302.1499633789062
 30
0.0
 10
71.91998291015625
 20
-302.1499633789062
 30
0.0
 10
71.91998291015625
 20
-292.969970703125
 30
0.0
 10
71.91998291015625
 20
-292.969970703125
 30
0.0
 10
71.91998291015625
 20
-292.5799560546875
 30
0.0
 10
72.239990234375
 20
-292.260009765625
 30
0.0
 10
72.6199951171875
 20
-292.260009765625
 30
0.0
 10
72.6199951171875
 20
-292.260009765625
 30
0.0
 10
79.030029296875
 20
-292.260009765625
 30
0.0
 10
79.030029296875
 20
-292.260009765625
 30
0.0
 10
79.030029296875
 20
-292.260009765625
 30
0.0
 10
79.030029296875
 20
-271.72998046875
 30
0.0
 10
79.030029296875
 20
-271.72998046875
 30
0.0
 10
79.030029296875
 20
-271.72998046875
 30
0.0
 10
88.90002441406251
 20
-271.72998046875
 30
0.0
 10
88.90002441406251
 20
-271.72998046875
 30
0.0
 10
88.90002441406251
 20
-271.72998046875
 30
0.0
 10
89.780029296875
 20
-272.5999755859375
 30
0.0
 10
89.780029296875
 20
-272.5999755859375
 30
0.0
 10
89.780029296875
 20
-272.5999755859375
 30
0.0
 10
89.82000732421875
 20
-273.260009765625
 30
0.0
 10
89.82000732421875
 20
-273.260009765625
 30
0.0
 10
89.82000732421875
 20
-273.260009765625
 30
0.0
 10
89.82000732421875
 20
-292.1300048828125
 30
0.0
 10
89.82000732421875
 20
-292.1300048828125
 30
0.0
 10
89.82000732421875
 20
-292.1300048828125
 30
0.0
 10
98.96002197265625
 20
-292.1300048828125
 30
0.0
 10
98.96002197265625
 20
-292.1300048828125
 30
0.0
 10
98.96002197265625
 20
-292.1300048828125
 30
0.0
 10
99.8499755859375
 20
-293.0
 30
0.0
 10
99.8499755859375
 20
-293.0
 30
0.0
 10
99.8499755859375
 20
-293.0
 30
0.0
 10
99.89001464843751
 20
-293.6699829101562
 30
0.0
 10
99.89001464843751
 20
-293.6699829101562
 30
0.0
 10
99.89001464843751
 20
-293.6699829101562
 30
0.0
 10
99.89001464843751
 20
-302.0399780273438
 30
0.0
 10
99.89001464843751
 20
-302.0399780273438
 30
0.0
 10
99.89001464843751
 20
-302.0399780273438
 30
0.0
 10
99.010009765625
 20
-302.9199829101563
 30
0.0
 10
99.010009765625
 20
-302.9199829101563
 30
0.0
 10
99.010009765625
 20
-302.9199829101563
 30
0.0
 10
98.3499755859375
 20
-302.9599609375
 30
0.0
 10
98.3499755859375
 20
-302.9599609375
 30
0.0
 10
98.3499755859375
 20
-302.9599609375
 30
0.0
 10
89.82000732421875
 20
-302.9599609375
 30
0.0
 10
89.82000732421875
 20
-302.9599609375
 30
0.0
 10
89.82000732421875
 20
-302.9599609375
 30
0.0
 10
89.82000732421875
 20
-320.969970703125
 30
0.0
 10
89.82000732421875
 20
-320.969970703125
 30
0.0
 10
89.82000732421875
 20
-322.3099975585938
 30
0.0
 10
90.30999755859374
 20
-322.5499877929688
 30
0.0
 10
90.53002929687499
 20
-322.6599731445312
 30
0.0
 10
91.05999755859375
 20
-322.9400024414062
 30
0.0
 10
91.53997802734375
 20
-323.0700073242187
 30
0.0
 10
92.03997802734376
 20
-323.0700073242187
 30
0.0
 10
92.64001464843749
 20
-323.0700073242187
 30
0.0
 10
93.79998779296874
 20
-322.9099731445312
 30
0.0
 10
95.95001220703125
 20
-322.1400146484375
 30
0.0
 10
95.95001220703125
 20
-322.1400146484375
 30
0.0
 10
97.65002441406251
 20
-321.3099975585937
 30
0.0
 10
97.65002441406251
 20
-321.3099975585937
 30
0.0
 10
97.65002441406251
 20
-321.3099975585937
 30
0.0
 10
101.6799926757812
 20
-331.47998046875
 30
0.0
 10
101.6799926757812
 20
-331.47998046875
 30
0.0
  0
HATCH
  5
88
330
70
100
AcDbEntity
  8
Layer 1
 62
    18
420
        0
440
 33554687
100
AcDbHatch
 10
0.0
 20
0.0
 30
0.0
210
0.0
220
0.0
230
1.0
  2
SOLID
 70
     1
 71
     1
 91
        1
 92
        1
 93
        1
 72
     4
 94
        3
 73
     0
 74
     0
 95
      107
 96
      103
 40
0.0
 40
0.0
 40
0.0
 40
0.0
 40
1.0
 40
1.0
 40
1.0
 40
2.0
 40
2.0
 40
2.0
 40
3.0
 40
3.0
 40
3.0
 40
4.0
 40
4.0
 40
4.0
 40
5.0
 40
5.0
 40
5.0
 40
6.0
 40
6.0
 40
6.0
 40
7.0
 40
7.0
 40
7.0
 40
8.0
 40
8.0
 40
8.0
 40
9.0
 40
9.0
 40
9.0
 40
10.0
 40
10.0
 40
10.0
 40
11.0
 40
11.0
 40
11.0
 40
12.0
 40
12.0
 40
12.0
 40
13.0
 40
13.0
 40
13.0
 40
14.0
 40
14.0
 40
14.0
 40
15.0
 40
15.0
 40
15.0
 40
16.0
 40
16.0
 40
16.0
 40
17.0
 40
17.0
 40
17.0
 40
18.0
 40
18.0
 40
18.0
 40
19.0
 40
19.0
 40
19.0
 40
20.0
 40
20.0
 40
20.0
 40
21.0
 40
21.0
 40
21.0
 40
22.0
 40
22.0
 40
22.0
 40
23.0
 40
23.0
 40
23.0
 40
24.0
 40
24.0
 40
24.0
 40
25.0
 40
25.0
 40
25.0
 40
26.0
 40
26.0
 40
26.0
 40
27.0
 40
27.0
 40
27.0
 40
28.0
 40
28.0
 40
28.0
 40
29.0
 40
29.0
 40
29.0
 40
30.0
 40
30.0
 40
30.0
 40
31.0
 40
31.0
 40
31.0
 40
32.0
 40
32.0
 40
32.0
 40
33.0
 40
33.0
 40
33.0
 40
34.0
 40
34.0
 40
34.0
 40
34.0
 10
101.6799926757812
 20
-331.47998046875
 10
101.6799926757812
 20
-331.47998046875
 10
100.3400268554687
 20
-332.0399780273437
 10
100.3400268554687
 20
-332.0399780273437
 10
99.65997314453126
 20
-332.3299560546875
 10
98.57000732421875
 20
-332.6900024414062
 10
97.030029296875
 20
-333.1499633789062
 10
95.15997314453125
 20
-333.6199951171875
 10
93.52001953125
 20
-333.8599853515625
 10
92.08001708984374
 20
-333.8599853515625
 10
92.08001708984374
 20
-333.8599853515625
 10
92.0
 20
-333.8599853515625
 10
92.0
 20
-333.8599853515625
 10
89.1400146484375
 20
-333.8599853515625
 10
86.42999267578124
 20
-332.97998046875
 10
83.95001220703125
 20
-331.239990234375
 10
83.49999999999999
 20
-330.9199829101562
 10
82.96002197265625
 20
-330.4599609375
 10
82.28997802734374
 20
-329.8099975585937
 10
82.28997802734374
 20
-329.8099975585937
 10
82.13000488281251
 20
-329.6400146484375
 10
82.13000488281251
 20
-329.6400146484375
 10
82.13000488281251
 20
-329.6400146484375
 10
81.44000244140626
 20
-328.75
 10
81.44000244140626
 20
-328.75
 10
80.94000244140625
 20
-328.0899658203125
 10
80.53997802734375
 20
-327.4299926757813
 10
80.260009765625
 20
-326.7899780273438
 10
79.44000244140625
 20
-324.9500122070312
 10
79.030029296875
 20
-323.0899658203125
 10
79.030029296875
 20
-321.260009765625
 10
79.030029296875
 20
-321.260009765625
 10
79.030029296875
 20
-302.8599853515625
 10
79.030029296875
 20
-302.8599853515625
 10
79.030029296875
 20
-302.8599853515625
 10
72.6199951171875
 20
-302.8599853515625
 10
72.6199951171875
 20
-302.8599853515625
 10
72.239990234375
 20
-302.8599853515625
 10
71.91998291015625
 20
-302.5399780273438
 10
71.91998291015625
 20
-302.1499633789062
 10
71.91998291015625
 20
-302.1499633789062
 10
71.91998291015625
 20
-292.969970703125
 10
71.91998291015625
 20
-292.969970703125
 10
71.91998291015625
 20
-292.5799560546875
 10
72.239990234375
 20
-292.260009765625
 10
72.6199951171875
 20
-292.260009765625
 10
72.6199951171875
 20
-292.260009765625
 10
79.030029296875
 20
-292.260009765625
 10
79.030029296875
 20
-292.260009765625
 10
79.030029296875
 20
-292.260009765625
 10
79.030029296875
 20
-271.72998046875
 10
79.030029296875
 20
-271.72998046875
 10
79.030029296875
 20
-271.72998046875
 10
88.90002441406251
 20
-271.72998046875
 10
88.90002441406251
 20
-271.72998046875
 10
88.90002441406251
 20
-271.72998046875
 10
89.780029296875
 20
-272.5999755859375
 10
89.780029296875
 20
-272.5999755859375
 10
89.780029296875
 20
-272.5999755859375
 10
89.82000732421875
 20
-273.260009765625
 10
89.82000732421875
 20
-273.260009765625
 10
89.82000732421875
 20
-273.260009765625
 10
89.82000732421875
 20
-292.1300048828125
 10
89.82000732421875
 20
-292.1300048828125
 10
89.82000732421875
 20
-292.1300048828125
 10
98.96002197265625
 20
-292.1300048828125
 10
98.96002197265625
 20
-292.1300048828125
 10
98.96002197265625
 20
-292.1300048828125
 10
99.8499755859375
 20
-293.0
 10
99.8499755859375
 20
-293.0
 10
99.8499755859375
 20
-293.0
 10
99.89001464843751
 20
-293.6699829101562
 10
99.89001464843751
 20
-293.6699829101562
 10
99.89001464843751
 20
-293.6699829101562
 10
99.89001464843751
 20
-302.0399780273438
 10
99.89001464843751
 20
-302.0399780273438
 10
99.89001464843751
 20
-302.0399780273438
 10
99.010009765625
 20
-302.9199829101563
 10
99.010009765625
 20
-302.9199829101563
 10
99.010009765625
 20
-302.9199829101563
 10
98.3499755859375
 20
-302.9599609375
 10
98.3499755859375
 20
-302.9599609375
 10
98.3499755859375
 20
-302.9599609375
 10
89.82000732421875
 20
-302.9599609375
 10
89.82000732421875
 20
-302.9599609375
 10
89.82000732421875
 20
-302.9599609375
 10
89.82000732421875
 20
-320.969970703125
 10
89.82000732421875
 20
-320.969970703125
 10
89.82000732421875
 20
-322.3099975585938
 10
90.30999755859374
 20
-322.5499877929688
 10
90.53002929687499
 20
-322.6599731445312
 10
91.05999755859375
 20
-322.9400024414062
 10
91.53997802734375
 20
-323.0700073242187
 10
92.03997802734376
 20
-323.0700073242187
 10
92.64001464843749
 20
-323.0700073242187
 10
93.79998779296874
 20
-322.9099731445312
 10
95.95001220703125
 20
-322.1400146484375
 10
95.95001220703125
 20
-322.1400146484375
 10
97.65002441406251
 20
-321.3099975585937
 10
97.65002441406251
 20
-321.3099975585937
 10
97.65002441406251
 20
-321.3099975585937
 10
101.6799926757812
 20
-331.47998046875
 10
101.6799926757812
 20
-331.47998046875
 97
        0
 97
        1
330
87
 75
     2
 76
     1
 98
        1
 10
0.0
 20
0.0
450
        0
451
        0
460
0.0
461
0.0
452
        0
462
0.0
453
        0
470

  0
ENDSEC
  0
SECTION
  2
OBJECTS
  0
DICTIONARY
  5
C
330
0
100
AcDbDictionary
281
     1
  3
ACAD_COLOR
350
63
  3
ACAD_DETAILVIEWSTYLE
350
6A
  3
ACAD_GROUP
350
D
  3
ACAD_LAYOUT
350
62
  3
ACAD_MATERIAL
350
10
  3
ACAD_MLEADERSTYLE
350
66
  3
ACAD_MLINESTYLE
350
5F
  3
ACAD_PLOTSETTINGS
350
61
  3
ACAD_PLOTSTYLENAME
350
E
  3
ACAD_SCALELIST
350
42
  3
ACAD_SECTIONVIEWSTYLE
350
68
  3
ACAD_TABLESTYLE
350
64
  3
ACAD_VISUALSTYLE
350
29
  3
ACDB_RECOMPOSE_DATA
350
91
  3
AcDbVariableDictionary
350
89
  0
DICTIONARY
  5
63
102
{ACAD_REACTORS
330
C
102
}
330
C
100
AcDbDictionary
281
     1
  0
DICTIONARY
  5
6A
102
{ACAD_REACTORS
330
C
102
}
330
C
100
AcDbDictionary
281
     1
  3
Imperial24
350
6B
  0
DICTIONARY
  5
D
102
{ACAD_REACTORS
330
C
102
}
330
C
100
AcDbDictionary
281
     1
  0
DICTIONARY
  5
62
102
{ACAD_REACTORS
330
C
102
}
330
C
100
AcDbDictionary
281
     1
  3
Layout1
350
6F
  3
Layout2
350
77
  3
Model
350
73
  0
DICTIONARY
  5
10
102
{ACAD_REACTORS
330
C
102
}
330
C
100
AcDbDictionary
281
     1
  3
ByBlock
350
19
  3
ByLayer
350
11
  3
Global
350
21
  0
DICTIONARY
  5
66
102
{ACAD_REACTORS
330
C
102
}
330
C
100
AcDbDictionary
281
     1
  3
Standard
350
67
  0
DICTIONARY
  5
5F
102
{ACAD_REACTORS
330
C
102
}
330
C
100
AcDbDictionary
281
     1
  3
Standard
350
60
  0
DICTIONARY
  5
61
102
{ACAD_REACTORS
330
C
102
}
330
C
100
AcDbDictionary
281
     1
  0
ACDBDICTIONARYWDFLT
  5
E
102
{ACAD_REACTORS
330
C
102
}
330
C
100
AcDbDictionary
281
     1
  3
Normal
350
F
100
AcDbDictionaryWithDefault
340
F
  0
DICTIONARY
  5
42
102
{ACAD_REACTORS
330
C
102
}
330
C
100
AcDbDictionary
281
     1
  3
A0
350
43
  3
A1
350
44
  3
A2
350
45
  3
A3
350
46
  3
A4
350
47
  3
A5
350
48
  3
A6
350
49
  3
A7
350
4A
  3
A8
350
4B
  3
A9
350
4C
  3
B0
350
4D
  3
B1
350
4E
  3
B2
350
4F
  3
B3
350
50
  3
B4
350
51
  3
B5
350
52
  3
B6
350
53
  0
DICTIONARY
  5
68
102
{ACAD_REACTORS
330
C
102
}
330
C
100
AcDbDictionary
281
     1
  3
Imperial24
350
69
  0
DICTIONARY
  5
64
102
{ACAD_REACTORS
330
C
102
}
330
C
100
AcDbDictionary
281
     1
  3
Standard
350
65
  0
DICTIONARY
  5
29
102
{ACAD_REACTORS
330
C
102
}
330
C
100
AcDbDictionary
281
     1
  3
2dWireframe
350
2F
  3
Basic
350
2E
  3
Brighten
350
35
  3
ColorChange
350
39
  3
Conceptual
350
32
  3
Dim
350
34
  3
EdgeColorOff
350
41
  3
Facepattern
350
38
  3
Flat
350
2A
  3
FlatWithEdges
350
2B
  3
Gouraud
350
2C
  3
GouraudWithEdges
350
2D
  3
Hidden
350
31
  3
JitterOff
350
3F
  3
Linepattern
350
37
  3
OverhangOff
350
40
  3
Realistic
350
33
  3
Shaded
350
3E
  3
Shaded with edges
350
3D
  3
Shades of Gray
350
3A
  3
Sketchy
350
3B
  3
Thicken
350
36
  3
Wireframe
350
30
  3
X-Ray
350
3C
  0
XRECORD
  5
91
102
{ACAD_REACTORS
330
C
102
}
330
C
100
AcDbXrecord
280
     1
 90
        1
330
65
  0
DICTIONARY
  5
89
102
{ACAD_REACTORS
330
C
102
}
330
C
100
AcDbDictionary
281
     1
  3
CANNOSCALE
350
8E
  3
CMLEADERSTYLE
350
8B
  3
CTABLESTYLE
350
8A
  3
CVIEWDETAILSTYLE
350
8C
  3
CVIEWSECTIONSTYLE
350
8D
  0
ACDBDETAILVIEWSTYLE
  5
6B
102
{ACAD_REACTORS
330
6A
102
}
330
6A
100
AcDbModelDocViewStyle
 70
     0
  3
Imperial24
290
     1
300
Imperial24
 90
        0
100
AcDbDetailViewStyle
 70
     0
 71
     0
 90
        3
 71
     1
340
55
 62
   256
 40
0.24
340
0
 62
   256
 40
0.24
300

 40
0.36
280
     3
 71
     2
340
5D
 90
       25
 62
   256
 71
     3
340
55
 62
   256
 40
0.24
 90
        1
 40
0.75
 90
        1
300
%<\AcVar ViewType \f "%tc1">% %<\AcVar ViewDetailId>%\PSCALE %<\AcVar ViewScale \f "%sn">%
 71
     4
340
5D
 90
       25
 62
   256
340
5D
 90
       25
 62
   256
280
     0
  0
LAYOUT
  5
6F
102
{ACAD_REACTORS
330
62
102
}
330
62
100
AcDbPlotSettings
  1

  2

  4

  6

 40
0.0
 41
0.0
 42
0.0
 43
0.0
 44
0.0
 45
0.0
 46
0.0
 47
0.0
 48
0.0
 49
0.0
140
0.0
141
0.0
142
1.0
143
1.0
 70
   688
 72
     0
 73
     0
 74
     5
  7

 75
    16
147
1.0
 76
     0
 77
     2
 78
   300
148
0.0
149
0.0
100
AcDbLayout
  1
Layout1
 70
     1
 71
     1
 10
0.0
 20
0.0
 11
12.0
 21
9.0
 12
0.0
 22
0.0
 32
0.0
 14
0.0
 24
0.0
 34
0.0
 15
0.0
 25
0.0
 35
0.0
146
0.0
 13
0.0
 23
0.0
 33
0.0
 16
1.0
 26
0.0
 36
0.0
 17
0.0
 27
1.0
 37
0.0
 76
     0
330
6C
  0
LAYOUT
  5
77
102
{ACAD_REACTORS
330
62
102
}
330
62
100
AcDbPlotSettings
  1

  2

  4

  6

 40
0.0
 41
0.0
 42
0.0
 43
0.0
 44
0.0
 45
0.0
 46
0.0
 47
0.0
 48
0.0
 49
0.0
140
0.0
141
0.0
142
1.0
143
1.0
 70
   688
 72
     0
 73
     0
 74
     5
  7

 75
    16
147
1.0
 76
     0
 77
     2
 78
   300
148
0.0
149
0.0
100
AcDbLayout
  1
Layout2
 70
     1
 71
     2
 10
0.0
 20
0.0
 11
12.0
 21
9.0
 12
0.0
 22
0.0
 32
0.0
 14
0.0
 24
0.0
 34
0.0
 15
0.0
 25
0.0
 35
0.0
146
0.0
 13
0.0
 23
0.0
 33
0.0
 16
1.0
 26
0.0
 36
0.0
 17
0.0
 27
1.0
 37
0.0
 76
     0
330
74
  0
LAYOUT
  5
73
102
{ACAD_REACTORS
330
62
102
}
330
62
100
AcDbPlotSettings
  1

  2

  4

  6

 40
0.0
 41
0.0
 42
0.0
 43
0.0
 44
0.0
 45
0.0
 46
0.0
 47
0.0
 48
0.0
 49
0.0
140
0.0
141
0.0
142
1.0
143
1.0
 70
  1712
 72
     0
 73
     0
 74
     0
  7

 75
     0
147
1.0
 76
     0
 77
     2
 78
   300
148
0.0
149
0.0
100
AcDbLayout
  1
Model
 70
     1
 71
     0
 10
0.0
 20
0.0
 11
12.0
 21
9.0
 12
0.0
 22
0.0
 32
0.0
 14
0.0
 24
0.0
 34
0.0
 15
0.0
 25
0.0
 35
0.0
146
0.0
 13
0.0
 23
0.0
 33
0.0
 16
1.0
 26
0.0
 36
0.0
 17
0.0
 27
1.0
 37
0.0
 76
     0
330
70
  0
MATERIAL
  5
19
102
{ACAD_XDICTIONARY
360
1A
102
}
102
{ACAD_REACTORS
330
10
102
}
330
10
100
AcDbMaterial
  1
ByBlock
 72
     0
 43
0.0208333333333333
 43
0.0
 43
0.0
 43
0.0
 43
0.0
 43
0.0208333333333333
 43
0.0
 43
0.0
 43
0.0
 43
0.0
 43
1.0
 43
0.0
 43
0.0
 43
0.0
 43
0.0
 43
1.0
 77
     0
 47
0.0208333333333333
 47
0.0
 47
0.0
 47
0.0
 47
0.0
 47
0.0208333333333333
 47
0.0
 47
0.0
 47
0.0
 47
0.0
 47
1.0
 47
0.0
 47
0.0
 47
0.0
 47
0.0
 47
1.0
171
     0
 49
0.0208333333333333
 49
0.0
 49
0.0
 49
0.0
 49
0.0
 49
0.0208333333333333
 49
0.0
 49
0.0
 49
0.0
 49
0.0
 49
1.0
 49
0.0
 49
0.0
 49
0.0
 49
0.0
 49
1.0
175
     0
142
0.0208333333333333
142
0.0
142
0.0
142
0.0
142
0.0
142
0.0208333333333333
142
0.0
142
0.0
142
0.0
142
0.0
142
1.0
142
0.0
142
0.0
142
0.0
142
0.0
142
1.0
179
     0
144
0.0208333333333333
144
0.0
144
0.0
144
0.0
144
0.0
144
0.0208333333333333
144
0.0
144
0.0
144
0.0
144
0.0
144
1.0
144
0.0
144
0.0
144
0.0
144
0.0
144
1.0
147
0.0208333333333333
147
0.0
147
0.0
147
0.0
147
0.0
147
0.0208333333333333
147
0.0
147
0.0
147
0.0
147
0.0
147
1.0
147
0.0
147
0.0
147
0.0
147
0.0
147
1.0
  0
MATERIAL
  5
11
102
{ACAD_XDICTIONARY
360
12
102
}
102
{ACAD_REACTORS
330
10
102
}
330
10
100
AcDbMaterial
  1
ByLayer
 72
     0
 43
0.0208333333333333
 43
0.0
 43
0.0
 43
0.0
 43
0.0
 43
0.0208333333333333
 43
0.0
 43
0.0
 43
0.0
 43
0.0
 43
1.0
 43
0.0
 43
0.0
 43
0.0
 43
0.0
 43
1.0
 77
     0
 47
0.0208333333333333
 47
0.0
 47
0.0
 47
0.0
 47
0.0
 47
0.0208333333333333
 47
0.0
 47
0.0
 47
0.0
 47
0.0
 47
1.0
 47
0.0
 47
0.0
 47
0.0
 47
0.0
 47
1.0
171
     0
 49
0.0208333333333333
 49
0.0
 49
0.0
 49
0.0
 49
0.0
 49
0.0208333333333333
 49
0.0
 49
0.0
 49
0.0
 49
0.0
 49
1.0
 49
0.0
 49
0.0
 49
0.0
 49
0.0
 49
1.0
175
     0
142
0.0208333333333333
142
0.0
142
0.0
142
0.0
142
0.0
142
0.0208333333333333
142
0.0
142
0.0
142
0.0
142
0.0
142
1.0
142
0.0
142
0.0
142
0.0
142
0.0
142
1.0
179
     0
144
0.0208333333333333
144
0.0
144
0.0
144
0.0
144
0.0
144
0.0208333333333333
144
0.0
144
0.0
144
0.0
144
0.0
144
1.0
144
0.0
144
0.0
144
0.0
144
0.0
144
1.0
147
0.0208333333333333
147
0.0
147
0.0
147
0.0
147
0.0
147
0.0208333333333333
147
0.0
147
0.0
147
0.0
147
0.0
147
1.0
147
0.0
147
0.0
147
0.0
147
0.0
147
1.0
  0
MATERIAL
  5
21
102
{ACAD_XDICTIONARY
360
22
102
}
102
{ACAD_REACTORS
330
10
102
}
330
10
100
AcDbMaterial
  1
Global
 72
     0
 43
0.0208333333333333
 43
0.0
 43
0.0
 43
0.0
 43
0.0
 43
0.0208333333333333
 43
0.0
 43
0.0
 43
0.0
 43
0.0
 43
1.0
 43
0.0
 43
0.0
 43
0.0
 43
0.0
 43
1.0
 77
     0
 47
0.0208333333333333
 47
0.0
 47
0.0
 47
0.0
 47
0.0
 47
0.0208333333333333
 47
0.0
 47
0.0
 47
0.0
 47
0.0
 47
1.0
 47
0.0
 47
0.0
 47
0.0
 47
0.0
 47
1.0
171
     0
 49
0.0208333333333333
 49
0.0
 49
0.0
 49
0.0
 49
0.0
 49
0.0208333333333333
 49
0.0
 49
0.0
 49
0.0
 49
0.0
 49
1.0
 49
0.0
 49
0.0
 49
0.0
 49
0.0
 49
1.0
175
     0
142
0.0208333333333333
142
0.0
142
0.0
142
0.0
142
0.0
142
0.0208333333333333
142
0.0
142
0.0
142
0.0
142
0.0
142
1.0
142
0.0
142
0.0
142
0.0
142
0.0
142
1.0
179
     0
144
0.0208333333333333
144
0.0
144
0.0
144
0.0
144
0.0
144
0.0208333333333333
144
0.0
144
0.0
144
0.0
144
0.0
144
1.0
144
0.0
144
0.0
144
0.0
144
0.0
144
1.0
147
0.0208333333333333
147
0.0
147
0.0
147
0.0
147
0.0
147
0.0208333333333333
147
0.0
147
0.0
147
0.0
147
0.0
147
1.0
147
0.0
147
0.0
147
0.0
147
0.0
147
1.0
  0
MLEADERSTYLE
  5
67
102
{ACAD_REACTORS
330
66
102
}
330
66
100
AcDbMLeaderStyle
179
     2
170
     2
171
     1
172
     0
 90
        2
 40
0.0
 41
0.0
173
     1
 91
-1056964608
340
5B
 92
       -2
290
     1
 42
0.09
291
     1
 43
0.36
  3
Standard
 44
0.18
300

342
55
174
     1
178
     6
175
     1
176
     0
 93
-1056964608
 45
0.18
292
     0
297
     0
 46
0.18
 94
-1056964608
 47
1.0
 49
1.0
140
1.0
293
     1
141
0.0
294
     1
177
     0
142
1.0
295
     1
296
     0
143
0.125
271
     0
272
     9
273
     9
298
     1
  0
MLINESTYLE
  5
60
102
{ACAD_REACTORS
330
5F
102
}
330
5F
100
AcDbMlineStyle
  2
STANDARD
 70
     0
  3

 62
   256
 51
90.0
 52
90.0
 71
     2
 49
0.5
 62
   256
  6
BYLAYER
 49
-0.5
 62
   256
  6
BYLAYER
  0
ACDBPLACEHOLDER
  5
F
102
{ACAD_REACTORS
330
E
102
}
330
E
  0
SCALE
  5
43
102
{ACAD_REACTORS
330
42
102
}
330
42
100
AcDbScale
 70
     0
300
1:1
140
1.0
141
1.0
290
     1
  0
SCALE
  5
44
102
{ACAD_REACTORS
330
42
102
}
330
42
100
AcDbScale
 70
     0
300
1/128" = 1'-0"
140
0.0078125
141
12.0
290
     0
  0
SCALE
  5
45
102
{ACAD_REACTORS
330
42
102
}
330
42
100
AcDbScale
 70
     0
300
1/64" = 1'-0"
140
0.015625
141
12.0
290
     0
  0
SCALE
  5
46
102
{ACAD_REACTORS
330
42
102
}
330
42
100
AcDbScale
 70
     0
300
1/32" = 1'-0"
140
0.03125
141
12.0
290
     0
  0
SCALE
  5
47
102
{ACAD_REACTORS
330
42
102
}
330
42
100
AcDbScale
 70
     0
300
1/16" = 1'-0"
140
0.0625
141
12.0
290
     0
  0
SCALE
  5
48
102
{ACAD_REACTORS
330
42
102
}
330
42
100
AcDbScale
 70
     0
300
3/32" = 1'-0"
140
0.09375
141
12.0
290
     0
  0
SCALE
  5
49
102
{ACAD_REACTORS
330
42
102
}
330
42
100
AcDbScale
 70
     0
300
1/8" = 1'-0"
140
0.125
141
12.0
290
     0
  0
SCALE
  5
4A
102
{ACAD_REACTORS
330
42
102
}
330
42
100
AcDbScale
 70
     0
300
3/16" = 1'-0"
140
0.1875
141
12.0
290
     0
  0
SCALE
  5
4B
102
{ACAD_REACTORS
330
42
102
}
330
42
100
AcDbScale
 70
     0
300
1/4" = 1'-0"
140
0.25
141
12.0
290
     0
  0
SCALE
  5
4C
102
{ACAD_REACTORS
330
42
102
}
330
42
100
AcDbScale
 70
     0
300
3/8" = 1'-0"
140
0.375
141
12.0
290
     0
  0
SCALE
  5
4D
102
{ACAD_REACTORS
330
42
102
}
330
42
100
AcDbScale
 70
     0
300
1/2" = 1'-0"
140
0.5
141
12.0
290
     0
  0
SCALE
  5
4E
102
{ACAD_REACTORS
330
42
102
}
330
42
100
AcDbScale
 70
     0
300
3/4" = 1'-0"
140
0.75
141
12.0
290
     0
  0
SCALE
  5
4F
102
{ACAD_REACTORS
330
42
102
}
330
42
100
AcDbScale
 70
     0
300
1" = 1'-0"
140
1.0
141
12.0
290
     0
  0
SCALE
  5
50
102
{ACAD_REACTORS
330
42
102
}
330
42
100
AcDbScale
 70
     0
300
1-1/2" = 1'-0"
140
1.5
141
12.0
290
     0
  0
SCALE
  5
51
102
{ACAD_REACTORS
330
42
102
}
330
42
100
AcDbScale
 70
     0
300
3" = 1'-0"
140
3.0
141
12.0
290
     0
  0
SCALE
  5
52
102
{ACAD_REACTORS
330
42
102
}
330
42
100
AcDbScale
 70
     0
300
6" = 1'-0"
140
6.0
141
12.0
290
     0
  0
SCALE
  5
53
102
{ACAD_REACTORS
330
42
102
}
330
42
100
AcDbScale
 70
     0
300
1'-0" = 1'-0"
140
12.0
141
12.0
290
     0
  0
ACDBSECTIONVIEWSTYLE
  5
69
102
{ACAD_REACTORS
330
68
102
}
330
68
100
AcDbModelDocViewStyle
 70
     0
  3
Imperial24
290
     1
300
Imperial24
 90
        0
100
AcDbSectionViewStyle
 70
     0
 71
     0
 90
       78
 71
     1
340
55
 62
   256
 40
0.24
340
0
340
0
 62
   256
 40
0.24
300
I, O, Q, S, X, Z
 40
0.48
 90
        3
 40
0.18
 90
        1
 71
     2
340
5D
 90
       25
 62
   256
340
5D
 90
       50
 62
   256
 40
0.24
 40
0.0
 40
0.24
 71
     3
340
55
 62
   256
 40
0.24
 90
        1
 40
0.75
 90
        1
300
%<\AcVar ViewType \f "%tc1">% %<\AcVar ViewSectionStartId>%-%<\AcVar ViewSectionEndId>%\PSCALE %<\AcVar ViewScale \f "%sn">%
 71
     4
 62
   256
 62
   257
300
ANSI31
 40
1.0
 90
        0
290
     0
290
     0
 90
        6
 40
0.0
 40
1.570796326794896
 40
0.2617993877991494
 40
1.308996938995747
 40
-0.2617993877991494
 40
1.832595714594046
  0
TABLESTYLE
  5
65
102
{ACAD_XDICTIONARY
360
8F
102
}
102
{ACAD_REACTORS
330
64
102
}
330
64
100
AcDbTableStyle
280
     0
  3
Standard
 70
     0
 71
     0
 40
0.06
 41
0.06
280
     0
281
     0
  7
Standard
140
0.18
170
     2
 62
     0
 63
     7
283
     0
 90
      512
 91
        0
  1

274
    -2
284
     1
 64
     0
275
    -2
285
     1
 65
     0
276
    -2
286
     1
 66
     0
277
    -2
287
     1
 67
     0
278
    -2
288
     1
 68
     0
279
    -2
289
     1
 69
     0
  7
Standard
140
0.25
170
     5
 62
     0
 63
     7
283
     0
 90
      512
 91
        0
  1

274
    -2
284
     1
 64
     0
275
    -2
285
     1
 65
     0
276
    -2
286
     1
 66
     0
277
    -2
287
     1
 67
     0
278
    -2
288
     1
 68
     0
279
    -2
289
     1
 69
     0
  7
Standard
140
0.18
170
     5
 62
     0
 63
     7
283
     0
 90
      512
 91
        0
  1

274
    -2
284
     1
 64
     0
275
    -2
285
     1
 65
     0
276
    -2
286
     1
 66
     0
277
    -2
287
     1
 67
     0
278
    -2
288
     1
 68
     0
279
    -2
289
     1
 69
     0
  0
VISUALSTYLE
  5
2F
102
{ACAD_REACTORS
330
29
102
}
330
29
100
AcDbVisualStyle
  2
2dWireframe
 70
     4
177
     3
291
     0
 70
    58
 90
        0
176
     1
 90
        2
176
     1
 90
        0
176
     1
 90
        0
176
     1
 40
0.6
176
     1
 40
30.0
176
     1
 62
     7
420
 16777215
176
     1
 90
        1
176
     1
 90
        4
176
     1
 62
     7
176
     1
 62
   257
176
     1
 90
        1
176
     1
 90
        1
176
     1
 40
1.0
176
     1
 90
        0
176
     1
 62
   257
176
     1
 40
1.0
176
     1
 90
        1
176
     1
 90
        6
176
     1
 90
        2
176
     1
 62
     7
176
     1
 90
        5
176
     1
 90
        0
176
     1
 90
        0
176
     1
290
     0
176
     1
 90
        1
176
     1
 40
0.0
176
     1
 90
        0
176
     1
290
     1
176
     1
290
     1
176
     1
290
     0
176
     1
290
     0
176
     1
290
     0
176
     1
290
     0
176
     1
290
     0
176
     1
290
     0
176
     1
290
     0
176
     1
 90
       50
176
     1
 40
0.0
176
     1
 40
1.0
176
     1
 90
        0
176
     1
 62
    18
420
        0
176
     1
 90
       50
176
     1
 90
        3
176
     1
 62
     5
420
      255
176
     1
290
     0
176
     1
 90
       50
176
     1
 90
       50
176
     1
 90
       50
176
     1
290
     0
176
     1
 90
       50
176
     1
 62
   256
176
     0
 40
1.0
176
     0
 90
        2
176
     1
  1
strokes_ogs.tif
176
     1
290
     0
176
     1
 40
1.0
176
     1
 40
1.0
176
     1
  0
VISUALSTYLE
  5
2E
102
{ACAD_REACTORS
330
29
102
}
330
29
100
AcDbVisualStyle
  2
Basic
 70
     7
177
     3
291
     1
 70
    58
 90
        1
176
     1
 90
        0
176
     1
 90
        1
176
     1
 90
        0
176
     1
 40
0.6
176
     1
 40
30.0
176
     1
 62
     7
420
 16777215
176
     1
 90
        0
176
     1
 90
        4
176
     1
 62
     7
176
     1
 62
   257
176
     1
 90
        1
176
     1
 90
        1
176
     1
 40
1.0
176
     1
 90
        8
176
     1
 62
     7
176
     1
 40
1.0
176
     1
 90
        1
176
     1
 90
        6
176
     1
 90
        2
176
     1
 62
     7
176
     1
 90
        5
176
     1
 90
        0
176
     1
 90
        0
176
     1
290
     0
176
     1
 90
        1
176
     1
 40
0.0
176
     1
 90
        0
176
     1
290
     0
176
     1
290
     1
176
     1
290
     1
176
     1
290
     0
176
     1
290
     0
176
     1
290
     0
176
     1
290
     0
176
     1
290
     0
176
     1
290
     0
176
     1
 90
       50
176
     1
 40
0.0
176
     1
 40
1.0
176
     1
 90
        0
176
     1
 62
    18
420
        0
176
     1
 90
       50
176
     1
 90
        3
176
     1
 62
     5
420
      255
176
     1
290
     0
176
     1
 90
       50
176
     1
 90
       50
176
     1
 90
       50
176
     1
290
     0
176
     1
 90
       50
176
     1
 62
   256
176
     0
 40
1.0
176
     0
 90
        2
176
     1
  1
strokes_ogs.tif
176
     1
290
     0
176
     1
 40
1.0
176
     1
 40
1.0
176
     1
  0
VISUALSTYLE
  5
35
102
{ACAD_REACTORS
330
29
102
}
330
29
100
AcDbVisualStyle
  2
Brighten
 70
    12
177
     3
291
     1
 70
    58
 90
        2
176
     1
 90
        2
176
     1
 90
        0
176
     1
 90
        0
176
     1
 40
0.6
176
     1
 40
30.0
176
     1
 62
     7
420
 16777215
176
     1
 90
        1
176
     1
 90
        4
176
     1
 62
     7
176
     1
 62
   257
176
     1
 90
        1
176
     1
 90
        1
176
     1
 40
1.0
176
     1
 90
        8
176
     1
 62
     7
176
     1
 40
1.0
176
     1
 90
        1
176
     1
 90
        6
176
     1
 90
        2
176
     1
 62
     7
176
     1
 90
        5
176
     1
 90
        0
176
     1
 90
        0
176
     1
290
     0
176
     1
 90
        1
176
     1
 40
50.0
176
     1
 90
        0
176
     1
290
     0
176
     1
290
     1
176
     1
290
     1
176
     1
290
     0
176
     1
290
     0
176
     1
290
     0
176
     1
290
     0
176
     1
290
     0
176
     1
290
     0
176
     1
 90
       50
176
     1
 40
0.0
176
     1
 40
1.0
176
     1
 90
        0
176
     1
 62
    18
420
        0
176
     1
 90
       50
176
     1
 90
        3
176
     1
 62
     5
420
      255
176
     1
290
     0
176
     1
 90
       50
176
     1
 90
       50
176
     1
 90
       50
176
     1
290
     0
176
     1
 90
       50
176
     1
 62
   256
176
     0
 40
1.0
176
     0
 90
        2
176
     1
  1
strokes_ogs.tif
176
     1
290
     0
176
     1
 40
1.0
176
     1
 40
1.0
176
     1
  0
VISUALSTYLE
  5
39
102
{ACAD_REACTORS
330
29
102
}
330
29
100
AcDbVisualStyle
  2
ColorChange
 70
    16
177
     3
291
     1
 70
    58
 90
        2
176
     1
 90
        2
176
     1
 90
        3
176
     1
 90
        0
176
     1
 40
0.6
176
     1
 40
30.0
176
     1
 62
     8
420
  8421504
176
     1
 90
        1
176
     1
 90
        4
176
     1
 62
     7
176
     1
 62
   257
176
     1
 90
        1
176
     1
 90
        1
176
     1
 40
1.0
176
     1
 90
        8
176
     1
 62
     8
420
  8421504
176
     1
 40
1.0
176
     1
 90
        1
176
     1
 90
        6
176
     1
 90
        2
176
     1
 62
     7
176
     1
 90
        5
176
     1
 90
        0
176
     1
 90
        0
176
     1
290
     0
176
     1
 90
        1
176
     1
 40
0.0
176
     1
 90
        0
176
     1
290
     0
176
     1
290
     1
176
     1
290
     1
176
     1
290
     0
176
     1
290
     0
176
     1
290
     0
176
     1
290
     0
176
     1
290
     0
176
     1
290
     0
176
     1
 90
       50
176
     1
 40
0.0
176
     1
 40
1.0
176
     1
 90
        0
176
     1
 62
    18
420
        0
176
     1
 90
       50
176
     1
 90
        3
176
     1
 62
     5
420
      255
176
     1
290
     0
176
     1
 90
       50
176
     1
 90
       50
176
     1
 90
       50
176
     1
290
     0
176
     1
 90
       50
176
     1
 62
   256
176
     0
 40
1.0
176
     0
 90
        2
176
     1
  1
strokes_ogs.tif
176
     1
290
     0
176
     1
 40
1.0
176
     1
 40
1.0
176
     1
  0
VISUALSTYLE
  5
32
102
{ACAD_REACTORS
330
29
102
}
330
29
100
AcDbVisualStyle
  2
Conceptual
 70
     9
177
     3
291
     0
 70
    58
 90
        3
176
     1
 90
        2
176
     1
 90
        0
176
     1
 90
        0
176
     1
 40
0.6
176
     1
 40
30.0
176
     1
 62
     7
420
 16777215
176
     1
 90
        2
176
     1
 90
        2
176
     1
 62
     7
176
     1
 62
   257
176
     1
 90
        1
176
     1
 90
        1
176
     1
 40
179.0
176
     1
 90
        8
176
     1
 62
     7
176
     1
 40
1.0
176
     1
 90
        1
176
     1
 90
        6
176
     1
 90
        2
176
     1
 62
     7
176
     1
 90
        3
176
     1
 90
        0
176
     1
 90
        0
176
     1
290
     0
176
     1
 90
        1
176
     1
 40
0.0
176
     1
 90
        0
176
     1
290
     0
176
     1
290
     1
176
     1
290
     1
176
     1
290
     0
176
     1
290
     0
176
     1
290
     0
176
     1
290
     0
176
     1
290
     0
176
     1
290
     0
176
     1
 90
       50
176
     1
 40
0.0
176
     1
 40
1.0
176
     1
 90
        0
176
     1
 62
    18
420
        0
176
     1
 90
       50
176
     1
 90
        3
176
     1
 62
     5
420
      255
176
     1
290
     0
176
     1
 90
       50
176
     1
 90
       50
176
     1
 90
       50
176
     1
290
     0
176
     1
 90
       50
176
     1
 62
   256
176
     0
 40
1.0
176
     0
 90
        2
176
     1
  1
strokes_ogs.tif
176
     1
290
     0
176
     1
 40
1.0
176
     1
 40
1.0
176
     1
  0
VISUALSTYLE
  5
34
102
{ACAD_REACTORS
330
29
102
}
330
29
100
AcDbVisualStyle
  2
Dim
 70
    11
177
     3
291
     1
 70
    58
 90
        2
176
     1
 90
        2
176
     1
 90
        0
176
     1
 90
        0
176
     1
 40
0.6
176
     1
 40
30.0
176
     1
 62
     7
420
 16777215
176
     1
 90
        1
176
     1
 90
        4
176
     1
 62
     7
176
     1
 62
   257
176
     1
 90
        1
176
     1
 90
        1
176
     1
 40
1.0
176
     1
 90
        8
176
     1
 62
     7
176
     1
 40
1.0
176
     1
 90
        1
176
     1
 90
        6
176
     1
 90
        2
176
     1
 62
     7
176
     1
 90
        5
176
     1
 90
        0
176
     1
 90
        0
176
     1
290
     0
176
     1
 90
        1
176
     1
 40
-50.0
176
     1
 90
        0
176
     1
290
     0
176
     1
290
     1
176
     1
290
     1
176
     1
290
     0
176
     1
290
     0
176
     1
290
     0
176
     1
290
     0
176
     1
290
     0
176
     1
290
     0
176
     1
 90
       50
176
     1
 40
0.0
176
     1
 40
1.0
176
     1
 90
        0
176
     1
 62
    18
420
        0
176
     1
 90
       50
176
     1
 90
        3
176
     1
 62
     5
420
      255
176
     1
290
     0
176
     1
 90
       50
176
     1
 90
       50
176
     1
 90
       50
176
     1
290
     0
176
     1
 90
       50
176
     1
 62
   256
176
     0
 40
1.0
176
     0
 90
        2
176
     1
  1
strokes_ogs.tif
176
     1
290
     0
176
     1
 40
1.0
176
     1
 40
1.0
176
     1
  0
VISUALSTYLE
  5
41
102
{ACAD_REACTORS
330
29
102
}
330
29
100
AcDbVisualStyle
  2
EdgeColorOff
 70
    22
177
     3
291
     1
 70
    58
 90
        2
176
     0
 90
        2
176
     0
 90
        0
176
     0
 90
        0
176
     0
 40
0.6
176
     0
 40
30.0
176
     0
 62
     7
420
 16777215
176
     0
 90
        1
176
     0
 90
        4
176
     0
 62
     7
176
     0
 62
   257
176
     0
 90
        1
176
     0
 90
        1
176
     0
 40
1.0
176
     0
 90
        8
176
     2
 62
     7
176
     0
 40
1.0
176
     0
 90
        1
176
     0
 90
        6
176
     0
 90
        2
176
     0
 62
     7
176
     0
 90
        5
176
     0
 90
        0
176
     0
 90
        0
176
     0
290
     0
176
     0
 90
        1
176
     0
 40
0.0
176
     0
 90
        0
176
     0
290
     0
176
     0
290
     1
176
     0
290
     1
176
     0
290
     0
176
     0
290
     0
176
     0
290
     0
176
     0
290
     0
176
     0
290
     0
176
     0
290
     0
176
     0
 90
       50
176
     0
 40
0.0
176
     0
 40
1.0
176
     0
 90
        0
176
     0
 62
    18
420
        0
176
     0
 90
       50
176
     0
 90
        3
176
     0
 62
     5
420
      255
176
     0
290
     0
176
     0
 90
       50
176
     0
 90
       50
176
     0
 90
       50
176
     0
290
     0
176
     0
 90
       50
176
     0
 62
   256
176
     0
 40
1.0
176
     0
 90
        2
176
     0
  1
strokes_ogs.tif
176
     0
290
     0
176
     0
 40
1.0
176
     0
 40
1.0
176
     0
  0
VISUALSTYLE
  5
38
102
{ACAD_REACTORS
330
29
102
}
330
29
100
AcDbVisualStyle
  2
Facepattern
 70
    15
177
     3
291
     1
 70
    58
 90
        2
176
     1
 90
        2
176
     1
 90
        0
176
     1
 90
        0
176
     1
 40
0.6
176
     1
 40
30.0
176
     1
 62
     7
420
 16777215
176
     1
 90
        1
176
     1
 90
        4
176
     1
 62
     7
176
     1
 62
   257
176
     1
 90
        1
176
     1
 90
        1
176
     1
 40
1.0
176
     1
 90
        8
176
     1
 62
     7
176
     1
 40
1.0
176
     1
 90
        1
176
     1
 90
        6
176
     1
 90
        2
176
     1
 62
     7
176
     1
 90
        5
176
     1
 90
        0
176
     1
 90
        0
176
     1
290
     0
176
     1
 90
        1
176
     1
 40
0.0
176
     1
 90
        0
176
     1
290
     0
176
     1
290
     1
176
     1
290
     1
176
     1
290
     0
176
     1
290
     0
176
     1
290
     0
176
     1
290
     0
176
     1
290
     0
176
     1
290
     0
176
     1
 90
       50
176
     1
 40
0.0
176
     1
 40
1.0
176
     1
 90
        0
176
     1
 62
    18
420
        0
176
     1
 90
       50
176
     1
 90
        3
176
     1
 62
     5
420
      255
176
     1
290
     0
176
     1
 90
       50
176
     1
 90
       50
176
     1
 90
       50
176
     1
290
     0
176
     1
 90
       50
176
     1
 62
   256
176
     0
 40
1.0
176
     0
 90
        2
176
     1
  1
strokes_ogs.tif
176
     1
290
     0
176
     1
 40
1.0
176
     1
 40
1.0
176
     1
  0
VISUALSTYLE
  5
2A
102
{ACAD_REACTORS
330
29
102
}
330
29
100
AcDbVisualStyle
  2
Flat
 70
     0
177
     3
291
     1
 70
    58
 90
        2
176
     1
 90
        1
176
     1
 90
        1
176
     1
 90
        2
176
     1
 40
0.6
176
     1
 40
30.0
176
     1
 62
     7
420
 16777215
176
     1
 90
        0
176
     1
 90
        0
176
     1
 62
     7
176
     1
 62
   257
176
     1
 90
        1
176
     1
 90
        1
176
     1
 40
1.0
176
     1
 90
        8
176
     1
 62
     7
176
     1
 40
1.0
176
     1
 90
        1
176
     1
 90
        6
176
     1
 90
        2
176
     1
 62
     7
176
     1
 90
        5
176
     1
 90
        0
176
     1
 90
        0
176
     1
290
     0
176
     1
 90
       13
176
     1
 40
0.0
176
     1
 90
        0
176
     1
290
     0
176
     1
290
     1
176
     1
290
     1
176
     1
290
     0
176
     1
290
     0
176
     1
290
     0
176
     1
290
     0
176
     1
290
     0
176
     1
290
     0
176
     1
 90
       50
176
     1
 40
0.0
176
     1
 40
1.0
176
     1
 90
        0
176
     1
 62
    18
420
        0
176
     1
 90
       50
176
     1
 90
        3
176
     1
 62
     5
420
      255
176
     1
290
     0
176
     1
 90
       50
176
     1
 90
       50
176
     1
 90
       50
176
     1
290
     0
176
     1
 90
       50
176
     1
 62
   256
176
     0
 40
1.0
176
     0
 90
        2
176
     1
  1
strokes_ogs.tif
176
     1
290
     0
176
     1
 40
1.0
176
     1
 40
1.0
176
     1
  0
VISUALSTYLE
  5
2B
102
{ACAD_REACTORS
330
29
102
}
330
29
100
AcDbVisualStyle
  2
FlatWithEdges
 70
     1
177
     3
291
     1
 70
    58
 90
        2
176
     1
 90
        1
176
     1
 90
        1
176
     1
 90
        2
176
     1
 40
0.6
176
     1
 40
30.0
176
     1
 62
     7
420
 16777215
176
     1
 90
        1
176
     1
 90
        0
176
     1
 62
     7
176
     1
 62
   257
176
     1
 90
        1
176
     1
 90
        1
176
     1
 40
1.0
176
     1
 90
        0
176
     1
 62
   257
176
     1
 40
1.0
176
     1
 90
        1
176
     1
 90
        6
176
     1
 90
        2
176
     1
 62
     7
176
     1
 90
        5
176
     1
 90
        0
176
     1
 90
        0
176
     1
290
     0
176
     1
 90
       13
176
     1
 40
0.0
176
     1
 90
        0
176
     1
290
     0
176
     1
290
     1
176
     1
290
     1
176
     1
290
     0
176
     1
290
     0
176
     1
290
     0
176
     1
290
     0
176
     1
290
     0
176
     1
290
     0
176
     1
 90
       50
176
     1
 40
0.0
176
     1
 40
1.0
176
     1
 90
        0
176
     1
 62
    18
420
        0
176
     1
 90
       50
176
     1
 90
        3
176
     1
 62
     5
420
      255
176
     1
290
     0
176
     1
 90
       50
176
     1
 90
       50
176
     1
 90
       50
176
     1
290
     0
176
     1
 90
       50
176
     1
 62
   256
176
     0
 40
1.0
176
     0
 90
        2
176
     1
  1
strokes_ogs.tif
176
     1
290
     0
176
     1
 40
1.0
176
     1
 40
1.0
176
     1
  0
VISUALSTYLE
  5
2C
102
{ACAD_REACTORS
330
29
102
}
330
29
100
AcDbVisualStyle
  2
Gouraud
 70
     2
177
     3
291
     1
 70
    58
 90
        2
176
     1
 90
        2
176
     1
 90
        1
176
     1
 90
        2
176
     1
 40
0.6
176
     1
 40
30.0
176
     1
 62
     7
420
 16777215
176
     1
 90
        0
176
     1
 90
        0
176
     1
 62
     7
176
     1
 62
   257
176
     1
 90
        1
176
     1
 90
        1
176
     1
 40
1.0
176
     1
 90
        0
176
     1
 62
     7
176
     1
 40
1.0
176
     1
 90
        1
176
     1
 90
        6
176
     1
 90
        2
176
     1
 62
     7
176
     1
 90
        5
176
     1
 90
        0
176
     1
 90
        0
176
     1
290
     0
176
     1
 90
       13
176
     1
 40
0.0
176
     1
 90
        0
176
     1
290
     0
176
     1
290
     1
176
     1
290
     1
176
     1
290
     0
176
     1
290
     0
176
     1
290
     0
176
     1
290
     0
176
     1
290
     0
176
     1
290
     0
176
     1
 90
       50
176
     1
 40
0.0
176
     1
 40
1.0
176
     1
 90
        0
176
     1
 62
    18
420
        0
176
     1
 90
       50
176
     1
 90
        3
176
     1
 62
     5
420
      255
176
     1
290
     0
176
     1
 90
       50
176
     1
 90
       50
176
     1
 90
       50
176
     1
290
     0
176
     1
 90
       50
176
     1
 62
   256
176
     0
 40
1.0
176
     0
 90
        2
176
     1
  1
strokes_ogs.tif
176
     1
290
     0
176
     1
 40
1.0
176
     1
 40
1.0
176
     1
  0
VISUALSTYLE
  5
2D
102
{ACAD_REACTORS
330
29
102
}
330
29
100
AcDbVisualStyle
  2
GouraudWithEdges
 70
     3
177
     3
291
     1
 70
    58
 90
        2
176
     1
 90
        2
176
     1
 90
        1
176
     1
 90
        2
176
     1
 40
0.6
176
     1
 40
30.0
176
     1
 62
     7
420
 16777215
176
     1
 90
        1
176
     1
 90
        0
176
     1
 62
     7
176
     1
 62
   257
176
     1
 90
        1
176
     1
 90
        1
176
     1
 40
1.0
176
     1
 90
        0
176
     1
 62
   257
176
     1
 40
1.0
176
     1
 90
        1
176
     1
 90
        6
176
     1
 90
        2
176
     1
 62
     7
176
     1
 90
        5
176
     1
 90
        0
176
     1
 90
        0
176
     1
290
     0
176
     1
 90
       13
176
     1
 40
0.0
176
     1
 90
        0
176
     1
290
     0
176
     1
290
     1
176
     1
290
     1
176
     1
290
     0
176
     1
290
     0
176
     1
290
     0
176
     1
290
     0
176
     1
290
     0
176
     1
290
     0
176
     1
 90
       50
176
     1
 40
0.0
176
     1
 40
1.0
176
     1
 90
        0
176
     1
 62
    18
420
        0
176
     1
 90
       50
176
     1
 90
        3
176
     1
 62
     5
420
      255
176
     1
290
     0
176
     1
 90
       50
176
     1
 90
       50
176
     1
 90
       50
176
     1
290
     0
176
     1
 90
       50
176
     1
 62
   256
176
     0
 40
1.0
176
     0
 90
        2
176
     1
  1
strokes_ogs.tif
176
     1
290
     0
176
     1
 40
1.0
176
     1
 40
1.0
176
     1
  0
VISUALSTYLE
  5
31
102
{ACAD_REACTORS
330
29
102
}
330
29
100
AcDbVisualStyle
  2
Hidden
 70
     6
177
     3
291
     0
 70
    58
 90
        1
176
     1
 90
        2
176
     1
 90
        2
176
     1
 90
        0
176
     1
 40
0.6
176
     1
 40
30.0
176
     1
 62
     7
420
 16777215
176
     1
 90
        2
176
     1
 90
        2
176
     1
 62
     7
176
     1
 62
   257
176
     1
 90
        2
176
     1
 90
        1
176
     1
 40
40.0
176
     1
 90
        0
176
     1
 62
   257
176
     1
 40
1.0
176
     1
 90
        1
176
     1
 90
        6
176
     1
 90
        2
176
     1
 62
     7
176
     1
 90
        3
176
     1
 90
        0
176
     1
 90
        0
176
     1
290
     0
176
     1
 90
        1
176
     1
 40
0.0
176
     1
 90
        0
176
     1
290
     0
176
     1
290
     1
176
     1
290
     1
176
     1
290
     0
176
     1
290
     0
176
     1
290
     0
176
     1
290
     0
176
     1
290
     0
176
     1
290
     0
176
     1
 90
       50
176
     1
 40
0.0
176
     1
 40
1.0
176
     1
 90
        0
176
     1
 62
    18
420
        0
176
     1
 90
       50
176
     1
 90
        3
176
     1
 62
     5
420
      255
176
     1
290
     0
176
     1
 90
       50
176
     1
 90
       50
176
     1
 90
       50
176
     1
290
     0
176
     1
 90
       50
176
     1
 62
   256
176
     0
 40
1.0
176
     0
 90
        2
176
     1
  1
strokes_ogs.tif
176
     1
290
     0
176
     1
 40
1.0
176
     1
 40
1.0
176
     1
  0
VISUALSTYLE
  5
3F
102
{ACAD_REACTORS
330
29
102
}
330
29
100
AcDbVisualStyle
  2
JitterOff
 70
    20
177
     3
291
     1
 70
    58
 90
        2
176
     0
 90
        2
176
     0
 90
        0
176
     0
 90
        0
176
     0
 40
0.6
176
     0
 40
30.0
176
     0
 62
     7
420
 16777215
176
     0
 90
        1
176
     0
 90
        4
176
     0
 62
     7
176
     0
 62
   257
176
     0
 90
        1
176
     0
 90
        1
176
     0
 40
1.0
176
     0
 90
       10
176
     2
 62
     7
176
     0
 40
1.0
176
     0
 90
        1
176
     0
 90
        6
176
     0
 90
        2
176
     0
 62
     7
176
     0
 90
        5
176
     0
 90
        0
176
     0
 90
        0
176
     0
290
     0
176
     0
 90
        1
176
     0
 40
0.0
176
     0
 90
        0
176
     0
290
     0
176
     0
290
     1
176
     0
290
     1
176
     0
290
     0
176
     0
290
     0
176
     0
290
     0
176
     0
290
     0
176
     0
290
     0
176
     0
290
     0
176
     0
 90
       50
176
     0
 40
0.0
176
     0
 40
1.0
176
     0
 90
        0
176
     0
 62
    18
420
        0
176
     0
 90
       50
176
     0
 90
        3
176
     0
 62
     5
420
      255
176
     0
290
     0
176
     0
 90
       50
176
     0
 90
       50
176
     0
 90
       50
176
     0
290
     0
176
     0
 90
       50
176
     0
 62
   256
176
     0
 40
1.0
176
     0
 90
        2
176
     0
  1
strokes_ogs.tif
176
     0
290
     0
176
     0
 40
1.0
176
     0
 40
1.0
176
     0
  0
VISUALSTYLE
  5
37
102
{ACAD_REACTORS
330
29
102
}
330
29
100
AcDbVisualStyle
  2
Linepattern
 70
    14
177
     3
291
     1
 70
    58
 90
        2
176
     1
 90
        2
176
     1
 90
        0
176
     1
 90
        0
176
     1
 40
0.6
176
     1
 40
30.0
176
     1
 62
     7
420
 16777215
176
     1
 90
        1
176
     1
 90
        4
176
     1
 62
     7
176
     1
 62
   257
176
     1
 90
        7
176
     1
 90
        7
176
     1
 40
1.0
176
     1
 90
        8
176
     1
 62
     7
176
     1
 40
1.0
176
     1
 90
        1
176
     1
 90
        6
176
     1
 90
        2
176
     1
 62
     7
176
     1
 90
        5
176
     1
 90
        0
176
     1
 90
        0
176
     1
290
     0
176
     1
 90
        1
176
     1
 40
0.0
176
     1
 90
        0
176
     1
290
     0
176
     1
290
     1
176
     1
290
     1
176
     1
290
     0
176
     1
290
     0
176
     1
290
     0
176
     1
290
     0
176
     1
290
     0
176
     1
290
     0
176
     1
 90
       50
176
     1
 40
0.0
176
     1
 40
1.0
176
     1
 90
        0
176
     1
 62
    18
420
        0
176
     1
 90
       50
176
     1
 90
        3
176
     1
 62
     5
420
      255
176
     1
290
     0
176
     1
 90
       50
176
     1
 90
       50
176
     1
 90
       50
176
     1
290
     0
176
     1
 90
       50
176
     1
 62
   256
176
     0
 40
1.0
176
     0
 90
        2
176
     1
  1
strokes_ogs.tif
176
     1
290
     0
176
     1
 40
1.0
176
     1
 40
1.0
176
     1
  0
VISUALSTYLE
  5
40
102
{ACAD_REACTORS
330
29
102
}
330
29
100
AcDbVisualStyle
  2
OverhangOff
 70
    21
177
     3
291
     1
 70
    58
 90
        2
176
     0
 90
        2
176
     0
 90
        0
176
     0
 90
        0
176
     0
 40
0.6
176
     0
 40
30.0
176
     0
 62
     7
420
 16777215
176
     0
 90
        1
176
     0
 90
        4
176
     0
 62
     7
176
     0
 62
   257
176
     0
 90
        1
176
     0
 90
        1
176
     0
 40
1.0
176
     0
 90
        9
176
     2
 62
     7
176
     0
 40
1.0
176
     0
 90
        1
176
     0
 90
        6
176
     0
 90
        2
176
     0
 62
     7
176
     0
 90
        5
176
     0
 90
        0
176
     0
 90
        0
176
     0
290
     0
176
     0
 90
        1
176
     0
 40
0.0
176
     0
 90
        0
176
     0
290
     0
176
     0
290
     1
176
     0
290
     1
176
     0
290
     0
176
     0
290
     0
176
     0
290
     0
176
     0
290
     0
176
     0
290
     0
176
     0
290
     0
176
     0
 90
       50
176
     0
 40
0.0
176
     0
 40
1.0
176
     0
 90
        0
176
     0
 62
    18
420
        0
176
     0
 90
       50
176
     0
 90
        3
176
     0
 62
     5
420
      255
176
     0
290
     0
176
     0
 90
       50
176
     0
 90
       50
176
     0
 90
       50
176
     0
290
     0
176
     0
 90
       50
176
     0
 62
   256
176
     0
 40
1.0
176
     0
 90
        2
176
     0
  1
strokes_ogs.tif
176
     0
290
     0
176
     0
 40
1.0
176
     0
 40
1.0
176
     0
  0
VISUALSTYLE
  5
33
102
{ACAD_REACTORS
330
29
102
}
330
29
100
AcDbVisualStyle
  2
Realistic
 70
     8
177
     3
291
     0
 70
    58
 90
        2
176
     1
 90
        3
176
     1
 90
        0
176
     1
 90
        2
176
     1
 40
0.6
176
     1
 40
30.0
176
     1
 62
     7
420
 16777215
176
     1
 90
        0
176
     1
 90
        0
176
     1
 62
     7
176
     1
 62
   257
176
     1
 90
        1
176
     1
 90
        1
176
     1
 40
1.0
176
     1
 90
        8
176
     1
 62
   257
176
     1
 40
1.0
176
     1
 90
        1
176
     1
 90
        6
176
     1
 90
        2
176
     1
 62
     7
176
     1
 90
        3
176
     1
 90
        0
176
     1
 90
        0
176
     1
290
     0
176
     1
 90
       13
176
     1
 40
0.0
176
     1
 90
        0
176
     1
290
     0
176
     1
290
     1
176
     1
290
     1
176
     1
290
     0
176
     1
290
     0
176
     1
290
     0
176
     1
290
     0
176
     1
290
     0
176
     1
290
     0
176
     1
 90
       50
176
     1
 40
0.0
176
     1
 40
1.0
176
     1
 90
        0
176
     1
 62
    18
420
        0
176
     1
 90
       50
176
     1
 90
        3
176
     1
 62
     5
420
      255
176
     1
290
     0
176
     1
 90
       50
176
     1
 90
       50
176
     1
 90
       50
176
     1
290
     0
176
     1
 90
       50
176
     1
 62
   256
176
     0
 40
1.0
176
     0
 90
        2
176
     1
  1
strokes_ogs.tif
176
     1
290
     0
176
     1
 40
1.0
176
     1
 40
1.0
176
     1
  0
VISUALSTYLE
  5
3E
102
{ACAD_REACTORS
330
29
102
}
330
29
100
AcDbVisualStyle
  2
Shaded
 70
    27
177
     3
291
     0
 70
    58
 90
        2
176
     1
 90
        2
176
     1
 90
        1
176
     1
 90
        2
176
     1
 40
0.6
176
     1
 40
30.0
176
     1
 62
     7
420
 16777215
176
     1
 90
        0
176
     1
 90
        4
176
     1
 62
     7
176
     1
 62
   257
176
     1
 90
        1
176
     1
 90
        1
176
     1
 40
1.0
176
     1
 90
        8
176
     1
 62
   257
176
     1
 40
1.0
176
     1
 90
        1
176
     1
 90
        6
176
     1
 90
        2
176
     1
 62
     8
420
  7895160
176
     1
 90
        3
176
     1
 90
        0
176
     1
 90
        0
176
     1
290
     0
176
     1
 90
        5
176
     1
 40
0.0
176
     1
 90
        0
176
     1
290
     0
176
     1
290
     1
176
     1
290
     1
176
     1
290
     0
176
     1
290
     0
176
     1
290
     0
176
     1
290
     0
176
     1
290
     0
176
     1
290
     0
176
     1
 90
       50
176
     1
 40
0.0
176
     1
 40
1.0
176
     1
 90
        0
176
     1
 62
    18
420
        0
176
     1
 90
       50
176
     1
 90
        3
176
     1
 62
     5
420
      255
176
     1
290
     0
176
     1
 90
       50
176
     1
 90
       50
176
     1
 90
       50
176
     1
290
     0
176
     1
 90
       50
176
     1
 62
   256
176
     0
 40
1.0
176
     0
 90
        2
176
     1
  1
strokes_ogs.tif
176
     1
290
     0
176
     1
 40
1.0
176
     1
 40
1.0
176
     1
  0
VISUALSTYLE
  5
3D
102
{ACAD_REACTORS
330
29
102
}
330
29
100
AcDbVisualStyle
  2
Shaded with edges
 70
    26
177
     3
291
     0
 70
    58
 90
        2
176
     1
 90
        2
176
     1
 90
        1
176
     1
 90
        2
176
     1
 40
0.6
176
     1
 40
30.0
176
     1
 62
     7
420
 16777215
176
     1
 90
        1
176
     1
 90
        2
176
     1
 62
     7
176
     1
 62
   257
176
     1
 90
        2
176
     1
 90
        1
176
     1
 40
1.0
176
     1
 90
        8
176
     1
 62
   257
176
     1
 40
1.0
176
     1
 90
        1
176
     1
 90
        6
176
     1
 90
        2
176
     1
 62
     7
176
     1
 90
        3
176
     1
 90
        0
176
     1
 90
        0
176
     1
290
     0
176
     1
 90
        5
176
     1
 40
0.0
176
     1
 90
        0
176
     1
290
     0
176
     1
290
     1
176
     1
290
     1
176
     1
290
     0
176
     1
290
     0
176
     1
290
     0
176
     1
290
     0
176
     1
290
     0
176
     1
290
     0
176
     1
 90
       50
176
     1
 40
0.0
176
     1
 40
1.0
176
     1
 90
        0
176
     1
 62
    18
420
        0
176
     1
 90
       50
176
     1
 90
        3
176
     1
 62
     5
420
      255
176
     1
290
     0
176
     1
 90
       50
176
     1
 90
       50
176
     1
 90
       50
176
     1
290
     0
176
     1
 90
       50
176
     1
 62
   256
176
     0
 40
1.0
176
     0
 90
        2
176
     1
  1
strokes_ogs.tif
176
     1
290
     0
176
     1
 40
1.0
176
     1
 40
1.0
176
     1
  0
VISUALSTYLE
  5
3A
102
{ACAD_REACTORS
330
29
102
}
330
29
100
AcDbVisualStyle
  2
Shades of Gray
 70
    23
177
     3
291
     0
 70
    58
 90
        2
176
     1
 90
        2
176
     1
 90
        3
176
     1
 90
        0
176
     1
 40
0.6
176
     1
 40
30.0
176
     1
 62
     7
420
 16777215
176
     1
 90
        2
176
     1
 90
        2
176
     1
 62
     7
176
     1
 62
     7
176
     1
 90
        1
176
     1
 90
        1
176
     1
 40
40.0
176
     1
 90
        8
176
     1
 62
     7
176
     1
 40
1.0
176
     1
 90
        1
176
     1
 90
        6
176
     1
 90
        2
176
     1
 62
     7
176
     1
 90
        3
176
     1
 90
        0
176
     1
 90
        0
176
     1
290
     0
176
     1
 90
        1
176
     1
 40
0.0
176
     1
 90
        0
176
     1
290
     0
176
     1
290
     1
176
     1
290
     1
176
     1
290
     0
176
     1
290
     0
176
     1
290
     0
176
     1
290
     0
176
     1
290
     0
176
     1
290
     0
176
     1
 90
       50
176
     1
 40
0.0
176
     1
 40
1.0
176
     1
 90
        0
176
     1
 62
    18
420
        0
176
     1
 90
       50
176
     1
 90
        3
176
     1
 62
     5
420
      255
176
     1
290
     0
176
     1
 90
       50
176
     1
 90
       50
176
     1
 90
       50
176
     1
290
     0
176
     1
 90
       50
176
     1
 62
   256
176
     0
 40
1.0
176
     0
 90
        2
176
     1
  1
strokes_ogs.tif
176
     1
290
     0
176
     1
 40
1.0
176
     1
 40
1.0
176
     1
  0
VISUALSTYLE
  5
3B
102
{ACAD_REACTORS
330
29
102
}
330
29
100
AcDbVisualStyle
  2
Sketchy
 70
    24
177
     3
291
     0
 70
    58
 90
        1
176
     1
 90
        2
176
     1
 90
        2
176
     1
 90
        0
176
     1
 40
0.6
176
     1
 40
30.0
176
     1
 62
     7
420
 16777215
176
     1
 90
        2
176
     1
 90
        2
176
     1
 62
     7
176
     1
 62
     7
176
     1
 90
        1
176
     1
 90
        1
176
     1
 40
40.0
176
     1
 90
       11
176
     1
 62
     7
176
     1
 40
1.0
176
     1
 90
        1
176
     1
 90
        6
176
     1
 90
        2
176
     1
 62
     7
176
     1
 90
        6
176
     1
 90
        0
176
     1
 90
        0
176
     1
290
     0
176
     1
 90
        1
176
     1
 40
0.0
176
     1
 90
        0
176
     1
290
     0
176
     1
290
     1
176
     1
290
     1
176
     1
290
     0
176
     1
290
     0
176
     1
290
     0
176
     1
290
     0
176
     1
290
     0
176
     1
290
     0
176
     1
 90
       50
176
     1
 40
0.0
176
     1
 40
1.0
176
     1
 90
        0
176
     1
 62
    18
420
        0
176
     1
 90
       50
176
     1
 90
        3
176
     1
 62
     5
420
      255
176
     1
290
     0
176
     1
 90
       50
176
     1
 90
       50
176
     1
 90
       50
176
     1
290
     0
176
     1
 90
       50
176
     1
 62
   256
176
     0
 40
1.0
176
     0
 90
        2
176
     1
  1
strokes_ogs.tif
176
     1
290
     0
176
     1
 40
1.0
176
     1
 40
1.0
176
     1
  0
VISUALSTYLE
  5
36
102
{ACAD_REACTORS
330
29
102
}
330
29
100
AcDbVisualStyle
  2
Thicken
 70
    13
177
     3
291
     1
 70
    58
 90
        2
176
     1
 90
        2
176
     1
 90
        0
176
     1
 90
        0
176
     1
 40
0.6
176
     1
 40
30.0
176
     1
 62
     7
420
 16777215
176
     1
 90
        1
176
     1
 90
        4
176
     1
 62
     7
176
     1
 62
   257
176
     1
 90
        1
176
     1
 90
        1
176
     1
 40
1.0
176
     1
 90
       12
176
     1
 62
     7
176
     1
 40
1.0
176
     1
 90
        1
176
     1
 90
        6
176
     1
 90
        2
176
     1
 62
     7
176
     1
 90
        5
176
     1
 90
        0
176
     1
 90
        0
176
     1
290
     0
176
     1
 90
        1
176
     1
 40
0.0
176
     1
 90
        0
176
     1
290
     0
176
     1
290
     1
176
     1
290
     1
176
     1
290
     0
176
     1
290
     0
176
     1
290
     0
176
     1
290
     0
176
     1
290
     0
176
     1
290
     0
176
     1
 90
       50
176
     1
 40
0.0
176
     1
 40
1.0
176
     1
 90
        0
176
     1
 62
    18
420
        0
176
     1
 90
       50
176
     1
 90
        3
176
     1
 62
     5
420
      255
176
     1
290
     0
176
     1
 90
       50
176
     1
 90
       50
176
     1
 90
       50
176
     1
290
     0
176
     1
 90
       50
176
     1
 62
   256
176
     0
 40
1.0
176
     0
 90
        2
176
     1
  1
strokes_ogs.tif
176
     1
290
     0
176
     1
 40
1.0
176
     1
 40
1.0
176
     1
  0
VISUALSTYLE
  5
30
102
{ACAD_REACTORS
330
29
102
}
330
29
100
AcDbVisualStyle
  2
Wireframe
 70
     5
177
     3
291
     0
 70
    58
 90
        0
176
     1
 90
        2
176
     1
 90
        0
176
     1
 90
        0
176
     1
 40
0.6
176
     1
 40
30.0
176
     1
 62
     7
420
 16777215
176
     1
 90
        1
176
     1
 90
        4
176
     1
 62
     7
176
     1
 62
   257
176
     1
 90
        1
176
     1
 90
        1
176
     1
 40
1.0
176
     1
 90
        0
176
     1
 62
   257
176
     1
 40
1.0
176
     1
 90
        1
176
     1
 90
        6
176
     1
 90
        2
176
     1
 62
     7
176
     1
 90
        3
176
     1
 90
        0
176
     1
 90
        0
176
     1
290
     0
176
     1
 90
        1
176
     1
 40
0.0
176
     1
 90
        0
176
     1
290
     0
176
     1
290
     1
176
     1
290
     1
176
     1
290
     0
176
     1
290
     0
176
     1
290
     0
176
     1
290
     0
176
     1
290
     0
176
     1
290
     0
176
     1
 90
       50
176
     1
 40
0.0
176
     1
 40
1.0
176
     1
 90
        0
176
     1
 62
    18
420
        0
176
     1
 90
       50
176
     1
 90
        3
176
     1
 62
     5
420
      255
176
     1
290
     0
176
     1
 90
       50
176
     1
 90
       50
176
     1
 90
       50
176
     1
290
     0
176
     1
 90
       50
176
     1
 62
   256
176
     0
 40
1.0
176
     0
 90
        2
176
     1
  1
strokes_ogs.tif
176
     1
290
     0
176
     1
 40
1.0
176
     1
 40
1.0
176
     1
  0
VISUALSTYLE
  5
3C
102
{ACAD_REACTORS
330
29
102
}
330
29
100
AcDbVisualStyle
  2
X-Ray
 70
    25
177
     3
291
     0
 70
    58
 90
        2
176
     1
 90
        2
176
     1
 90
        1
176
     1
 90
        1
176
     1
 40
0.5
176
     1
 40
30.0
176
     1
 62
     7
420
 16777215
176
     1
 90
        1
176
     1
 90
        0
176
     1
 62
     7
176
     1
 62
   257
176
     1
 90
        1
176
     1
 90
        1
176
     1
 40
1.0
176
     1
 90
        8
176
     1
 62
     7
176
     1
 40
1.0
176
     1
 90
        1
176
     1
 90
        6
176
     1
 90
        2
176
     1
 62
     7
176
     1
 90
        3
176
     1
 90
        0
176
     1
 90
        0
176
     1
290
     0
176
     1
 90
       13
176
     1
 40
0.0
176
     1
 90
        0
176
     1
290
     0
176
     1
290
     1
176
     1
290
     1
176
     1
290
     0
176
     1
290
     0
176
     1
290
     0
176
     1
290
     0
176
     1
290
     0
176
     1
290
     0
176
     1
 90
       50
176
     1
 40
0.0
176
     1
 40
1.0
176
     1
 90
        0
176
     1
 62
    18
420
        0
176
     1
 90
       50
176
     1
 90
        3
176
     1
 62
     5
420
      255
176
     1
290
     0
176
     1
 90
       50
176
     1
 90
       50
176
     1
 90
       50
176
     1
290
     0
176
     1
 90
       50
176
     1
 62
   256
176
     0
 40
1.0
176
     0
 90
        2
176
     1
  1
strokes_ogs.tif
176
     1
290
     0
176
     1
 40
1.0
176
     1
 40
1.0
176
     1
  0
DICTIONARYVAR
  5
8E
102
{ACAD_REACTORS
330
89
102
}
330
89
100
DictionaryVariables
280
     0
  1
1:1
  0
DICTIONARYVAR
  5
8B
102
{ACAD_REACTORS
330
89
102
}
330
89
100
DictionaryVariables
280
     0
  1
STANDARD
  0
DICTIONARYVAR
  5
8A
102
{ACAD_REACTORS
330
89
102
}
330
89
100
DictionaryVariables
280
     0
  1
STANDARD
  0
DICTIONARYVAR
  5
8C
102
{ACAD_REACTORS
330
89
102
}
330
89
100
DictionaryVariables
280
     0
  1
Imperial24
  0
DICTIONARYVAR
  5
8D
102
{ACAD_REACTORS
330
89
102
}
330
89
100
DictionaryVariables
280
     0
  1
Imperial24
  0
DICTIONARY
  5
1A
330
19
100
AcDbDictionary
280
     1
281
     1
  3
BUMPTILE
360
1C
  3
DIFFUSETILE
360
1B
  3
OPACITYTILE
360
1F
  3
REFLECTIONTILE
360
1E
  3
REFRACTIONTILE
360
20
  3
SPECULARTILE
360
1D
  0
DICTIONARY
  5
12
330
11
100
AcDbDictionary
280
     1
281
     1
  3
BUMPTILE
360
14
  3
DIFFUSETILE
360
13
  3
OPACITYTILE
360
17
  3
REFLECTIONTILE
360
16
  3
REFRACTIONTILE
360
18
  3
SPECULARTILE
360
15
  0
DICTIONARY
  5
22
330
21
100
AcDbDictionary
280
     1
281
     1
  3
BUMPTILE
360
24
  3
DIFFUSETILE
360
23
  3
OPACITYTILE
360
27
  3
REFLECTIONTILE
360
26
  3
REFRACTIONTILE
360
28
  3
SPECULARTILE
360
25
  0
DICTIONARY
  5
8F
330
65
100
AcDbDictionary
280
     1
281
     1
  3
ACAD_ROUNDTRIP_2008_TABLESTYLE_CELLSTYLEMAP
360
90
  0
XRECORD
  5
1C
102
{ACAD_REACTORS
330
1A
102
}
330
1A
100
AcDbXrecord
280
     1
270
     1
271
     1
  0
XRECORD
  5
1B
102
{ACAD_REACTORS
330
1A
102
}
330
1A
100
AcDbXrecord
280
     1
270
     1
271
     1
  0
XRECORD
  5
1F
102
{ACAD_REACTORS
330
1A
102
}
330
1A
100
AcDbXrecord
280
     1
270
     1
271
     1
  0
XRECORD
  5
1E
102
{ACAD_REACTORS
330
1A
102
}
330
1A
100
AcDbXrecord
280
     1
270
     1
271
     1
  0
XRECORD
  5
20
102
{ACAD_REACTORS
330
1A
102
}
330
1A
100
AcDbXrecord
280
     1
270
     1
271
     1
  0
XRECORD
  5
1D
102
{ACAD_REACTORS
330
1A
102
}
330
1A
100
AcDbXrecord
280
     1
270
     1
271
     1
  0
XRECORD
  5
14
102
{ACAD_REACTORS
330
12
102
}
330
12
100
AcDbXrecord
280
     1
270
     1
271
     1
  0
XRECORD
  5
13
102
{ACAD_REACTORS
330
12
102
}
330
12
100
AcDbXrecord
280
     1
270
     1
271
     1
  0
XRECORD
  5
17
102
{ACAD_REACTORS
330
12
102
}
330
12
100
AcDbXrecord
280
     1
270
     1
271
     1
  0
XRECORD
  5
16
102
{ACAD_REACTORS
330
12
102
}
330
12
100
AcDbXrecord
280
     1
270
     1
271
     1
  0
XRECORD
  5
18
102
{ACAD_REACTORS
330
12
102
}
330
12
100
AcDbXrecord
280
     1
270
     1
271
     1
  0
XRECORD
  5
15
102
{ACAD_REACTORS
330
12
102
}
330
12
100
AcDbXrecord
280
     1
270
     1
271
     1
  0
XRECORD
  5
24
102
{ACAD_REACTORS
330
22
102
}
330
22
100
AcDbXrecord
280
     1
270
     1
271
     1
  0
XRECORD
  5
23
102
{ACAD_REACTORS
330
22
102
}
330
22
100
AcDbXrecord
280
     1
270
     1
271
     1
  0
XRECORD
  5
27
102
{ACAD_REACTORS
330
22
102
}
330
22
100
AcDbXrecord
280
     1
270
     1
271
     1
  0
XRECORD
  5
26
102
{ACAD_REACTORS
330
22
102
}
330
22
100
AcDbXrecord
280
     1
270
     1
271
     1
  0
XRECORD
  5
28
102
{ACAD_REACTORS
330
22
102
}
330
22
100
AcDbXrecord
280
     1
270
     1
271
     1
  0
XRECORD
  5
25
102
{ACAD_REACTORS
330
22
102
}
330
22
100
AcDbXrecord
280
     1
270
     1
271
     1
  0
CELLSTYLEMAP
  5
90
102
{ACAD_REACTORS
330
8F
102
}
330
8F
100
AcDbCellStyleMap
 90
        3
300
CELLSTYLE
  1
TABLEFORMAT_BEGIN
 90
        5
170
     1
 91
        0
 92
    32768
 62
   257
 93
        1
300
CONTENTFORMAT
  1
CONTENTFORMAT_BEGIN
 90
        0
 91
        0
 92
      512
 93
        0
300

 40
0.0
140
1.0
 94
        5
 62
     0
340
55
144
0.25
309
CONTENTFORMAT_END
171
     0
 94
        0
309
TABLEFORMAT_END
  1
CELLSTYLE_BEGIN
 90
        1
 91
        1
300
_TITLE
309
CELLSTYLE_END
300
CELLSTYLE
  1
TABLEFORMAT_BEGIN
 90
        5
170
     1
 91
        0
 92
        0
 62
   257
 93
        1
300
CONTENTFORMAT
  1
CONTENTFORMAT_BEGIN
 90
        0
 91
        0
 92
      512
 93
        0
300

 40
0.0
140
1.0
 94
        5
 62
     0
340
55
144
0.18
309
CONTENTFORMAT_END
171
     0
 94
        0
309
TABLEFORMAT_END
  1
CELLSTYLE_BEGIN
 90
        2
 91
        1
300
_HEADER
309
CELLSTYLE_END
300
CELLSTYLE
  1
TABLEFORMAT_BEGIN
 90
        5
170
     1
 91
        0
 92
        0
 62
   257
 93
        1
300
CONTENTFORMAT
  1
CONTENTFORMAT_BEGIN
 90
        0
 91
        0
 92
      512
 93
        0
300

 40
0.0
140
1.0
 94
        2
 62
     0
340
55
144
0.18
309
CONTENTFORMAT_END
171
     0
 94
        0
309
TABLEFORMAT_END
  1
CELLSTYLE_BEGIN
 90
        3
 91
        2
300
_DATA
309
CELLSTYLE_END
  0
ENDSEC
  0
EOF
